<?xml version="1.0" encoding="UTF-8" standalone="no"?>
<!-- Generator: Adobe Illustrator 21.0.0, SVG Export Plug-In . SVG Version: 6.00 Build 0)  -->

<svg
   xmlns:dc="http://purl.org/dc/elements/1.1/"
   xmlns:cc="http://creativecommons.org/ns#"
   xmlns:rdf="http://www.w3.org/1999/02/22-rdf-syntax-ns#"
   xmlns:svg="http://www.w3.org/2000/svg"
   xmlns="http://www.w3.org/2000/svg"
   xmlns:sodipodi="http://sodipodi.sourceforge.net/DTD/sodipodi-0.dtd"
   xmlns:inkscape="http://www.inkscape.org/namespaces/inkscape"
   version="1.1"
   id="Layer_1"
   x="0px"
   y="0px"
   width="700"
   height="700"
   viewBox="0 0 762.88356 762.88355"
   xml:space="preserve"
   sodipodi:docname="cs-go-logo.svg"
   inkscape:export-filename="G:\Users\suitedoalex\sites\cs-go-logo-0.png"
   inkscape:export-xdpi="561.73712"
   inkscape:export-ydpi="561.73712"
   inkscape:version="0.92.4 (5da689c313, 2019-01-14)"><metadata
   id="metadata71"><rdf:RDF><cc:Work
       rdf:about=""><dc:format>image/svg+xml</dc:format><dc:type
         rdf:resource="http://purl.org/dc/dcmitype/StillImage" /><dc:title></dc:title></cc:Work></rdf:RDF></metadata><defs
   id="defs69" /><sodipodi:namedview
   pagecolor="#ffffff"
   bordercolor="#666666"
   borderopacity="1"
   objecttolerance="10"
   gridtolerance="10"
   guidetolerance="10"
   inkscape:pageopacity="0"
   inkscape:pageshadow="2"
   inkscape:window-width="1600"
   inkscape:window-height="837"
   id="namedview67"
   showgrid="false"
   inkscape:zoom="0.50689937"
   inkscape:cx="329.45395"
   inkscape:cy="233.70539"
   inkscape:window-x="-8"
   inkscape:window-y="-8"
   inkscape:window-maximized="1"
   inkscape:current-layer="Layer_1" />

<g
   id="_x23_000000ff"
   transform="matrix(0.88314484,0,0,0.88314484,64.364732,308.41166)"
   inkscape:export-filename="G:\Users\suitedoalex\sites\cs-go-logo-4.png"
   inkscape:export-xdpi="65.992805"
   inkscape:export-ydpi="65.992805">

	<path
   d="m 412.7,39.4 c 0.2,0.1 0.2,0.1 0,0 z"
   id="path2"
   inkscape:connector-curvature="0" />

</g>

<g
   id="_x23_ffffffff"
   transform="matrix(0.88314484,0,0,0.88314484,64.364732,308.41166)"
   inkscape:export-filename="G:\Users\suitedoalex\sites\cs-go-logo-4.png"
   inkscape:export-xdpi="65.992805"
   inkscape:export-ydpi="65.992805">

	<path
   d="m 400,2.9 c 3,-2.7 7.5,-3.7 11.4,-2.5 1.5,0.5 2.8,1.4 4.2,2.3 1.1,0.7 2.4,1 3.4,1.8 0.5,0.4 0.1,1.1 0.1,1.6 1.3,3.1 2,6.5 0.9,9.8 -0.9,1.1 -2.5,1.4 -3.8,1.9 -0.2,1.4 0.3,2.7 0.5,4.1 -0.3,0.2 -0.5,0.4 -0.8,0.6 1.9,-0.1 3.8,-0.5 5.7,-0.9 0.7,-0.7 1.8,-0.3 2.7,-0.4 0.1,-1.4 0.6,-2.7 0.6,-4.1 0.2,0 0.6,-0.1 0.8,-0.2 0.1,1 0,2 0.3,3 0.5,0.4 1.3,0.2 1.9,0.3 0,0.4 0,0.8 0.1,1.2 11.6,-0.1 23.3,0 34.9,0 0,0.6 0,1.2 0,1.7 0.3,0 0.7,0 1.1,0 0,-2.2 0,-4.3 0,-6.5 0.3,0 1,0 1.3,0 0,1.8 -0.1,3.5 0,5.3 0.1,0.1 0.3,0.2 0.5,0.2 0,0.2 0.1,0.6 0.1,0.8 0.4,-0.4 0.9,-0.7 1.5,-0.5 0.1,0.3 0.2,0.6 0.3,1 -0.4,0.4 -0.6,0.9 -0.4,1.5 3.2,0.1 6.4,0 9.7,0 0.3,-0.4 0.8,-0.6 1.3,-0.8 0.2,0.1 0.5,0.3 0.6,0.4 1.6,0 3.1,0 4.7,0 0.2,0.8 0.2,1.6 0.1,2.3 -1.6,0 -3.2,0 -4.8,0 -0.1,0.1 -0.4,0.4 -0.6,0.5 -0.5,-0.3 -0.9,-0.5 -1.4,-0.8 -2.9,0 -5.8,0 -8.7,0 -1.7,0.5 -3.5,0.4 -5.2,0.1 0,0.6 0,1.3 0,1.9 -4.8,0 -9.5,0 -14.3,0 -0.6,0.5 -1.2,0.8 -2,0.9 0.3,1.5 -1.4,1.9 -2,3 -0.4,0.6 -1,1 -1.6,1.2 -0.5,3.1 0.6,6 1.4,8.9 -0.9,0.2 -1.9,0.5 -2.8,0.7 -0.5,2 -1,4.1 -1.4,6.1 -0.4,1.8 -1.8,3.3 -3.5,4 -1.2,1.4 -2.8,2.8 -4.7,2.9 -0.7,0.2 -1.2,-0.3 -1.7,-0.7 -2.5,0.2 -4.8,-1 -7,-2 -2.4,-1.1 -4.6,-2.5 -6.9,-3.8 0.2,1.4 -0.5,2.6 -1,3.8 1.1,0.5 2.6,0.9 3.2,2.1 0.4,0.9 0.8,1.9 0.8,3 -0.1,3.6 -0.5,7.2 -0.7,10.8 0.1,2.6 -1.2,5.2 -3,7.1 -1.2,-0.1 -2.2,-0.6 -3.3,-1.1 -0.4,0.9 -1.3,1.8 -0.8,2.9 0.4,1.3 0.4,2.7 1,3.9 3.4,3.6 6.3,7.6 8.4,12.1 2.1,4.3 3.7,8.8 5.4,13.3 0.3,0 0.9,-0.1 1.2,-0.1 0.4,1.3 0,2.8 0.8,4 0.7,1.1 0.5,2.4 0.5,3.7 -0.2,3 -0.4,6 -0.7,9 -0.2,2.1 -0.7,4.2 -1,6.3 0.1,1.6 0.8,3.2 0.7,4.8 -0.1,1.5 -0.1,3.1 -1.3,4.2 0.1,3.4 -0.8,6.8 0.4,10.1 1.6,2.2 3.4,4.3 5.3,6.2 2.1,1 4.6,1.2 6.4,3 0.7,1.1 0.3,2.4 0.1,3.6 -4.3,0.6 -8.6,0.6 -12.9,0 -1.7,-0.4 -3.3,-1.1 -5,-1.3 -2.3,0.1 -5,1 -7.1,-0.6 -0.2,-2.7 0.8,-5.3 1.3,-7.9 0.2,-0.9 1.1,-1.5 1,-2.4 -0.2,-3.1 -0.4,-6.3 -0.6,-9.4 -0.4,-0.2 -1.1,-0.4 -1,-1 0,-1.5 -0.5,-3 -0.9,-4.4 -0.7,-3.8 -1,-7.7 -1.1,-11.6 -0.1,-1.1 0.6,-1.9 1.4,-2.6 0.2,-1.7 0.4,-3.5 0.5,-5.2 -0.3,-0.9 -1,-1.6 -1.4,-2.4 -1.8,0.2 -4.4,0.6 -5.5,-1.3 -2.6,-3.9 -5.3,-7.9 -7.9,-11.8 -1.1,-0.1 -2.4,0 -3.4,-0.7 -1.1,-1.2 -1.8,-2.8 -2.5,-4.3 -0.3,1.2 -0.5,2.5 -1.2,3.5 -0.6,1 -1.6,1.7 -2.3,2.6 -0.7,1.6 -1.3,3.2 -1.9,4.8 -0.7,2 -1.7,4 -1.9,6.2 -0.1,1.1 -0.3,2.1 -0.7,3.1 -0.5,0.8 -1.4,1.1 -2.2,1.5 -0.6,1.3 -1,2.6 -1.9,3.7 -0.6,0.7 -1.6,0.9 -2,1.8 -0.4,1.2 -1,2.3 -1.5,3.4 -0.2,1.2 0.6,2.5 0.2,3.7 -0.7,3 -2.2,5.8 -3.6,8.5 -0.7,2 -1.2,4.1 -2.2,6 -0.4,0.8 -1.4,1 -2.2,1.1 -0.9,2.2 -1.9,4.3 -2.5,6.6 -0.3,2.2 -0.3,4.5 -0.2,6.7 0,1 0.6,1.8 1,2.7 0.4,1.2 0.1,2.4 -0.1,3.6 -3.9,0.5 -7.9,0.9 -11.7,-0.3 -0.4,-0.3 -0.3,-0.8 -0.4,-1.2 -0.3,-1.8 -0.5,-3.7 0.1,-5.4 1.3,-4.7 2.4,-9.4 3.7,-14.1 -0.5,-0.5 -1.2,-0.9 -1.2,-1.7 -0.1,-1.3 0,-2.7 0.3,-4 0.6,-2.2 2.2,-3.9 3,-6 0.3,-0.9 0.2,-1.8 0.3,-2.7 0,-2.1 1.2,-3.8 2.1,-5.6 0.9,-1.5 1.6,-3.1 2.8,-4.4 0.8,-0.7 0.8,-1.8 1.4,-2.7 0.6,-1.1 1.6,-2 1.6,-3.3 0.2,-1.6 -0.4,-3.2 -0.2,-4.8 0.4,-4.7 1.3,-9.3 2.1,-14 -0.4,-0.5 -1,-1 -1.2,-1.7 0.1,-0.5 0.2,-0.9 0.3,-1.4 -0.3,-0.5 -0.6,-1 -0.9,-1.5 0.4,-0.6 0.8,-1.3 1.2,-1.9 -0.4,-0.3 -0.9,-0.7 -1.3,-1 0.5,-1.5 0.3,-3.7 2.1,-4.4 0.2,0.1 0.7,0.2 0.9,0.3 -0.3,-2.6 -0.3,-5.3 -0.6,-7.9 -0.7,-2.8 -0.8,-5.7 -0.5,-8.5 1,-1.5 2.9,-2.1 4.6,-2.2 -2.2,-0.5 -4.4,-0.7 -6.5,-1.4 -0.1,-1.8 0.2,-3.6 0.5,-5.4 0.9,-3.5 0.5,-7.1 1,-10.7 0.5,-1 1.8,-1.2 2.9,-1 1.3,0.2 2.6,-0.2 3.9,-0.6 0,-0.5 0.1,-1.1 0,-1.6 -0.8,-3.5 -0.6,-7.1 0,-10.5 0.8,-4.4 2.6,-8.7 5.9,-11.8 2.2,-2.1 5.4,-3.1 8.4,-3 1,0 1.6,1 2.4,1.6 0.4,-0.4 0.8,-0.8 1.1,-1.2 -0.5,-1.7 -1.3,-3.5 -1.2,-5.3 0.2,-4 1.5,-8.1 4.5,-10.8 m 31.2,28.3 c 0.2,0.2 0.2,0.2 0,0 m 1.4,0.2 c 0.1,0.7 0.3,1.4 -0.1,2 -0.5,0.2 -1.1,0.2 -1.6,0.5 1.4,0 2.8,0.1 4.2,0 1.1,-0.3 0.7,-1.7 0.7,-2.5 -0.7,-0.8 -2.2,-0.3 -3.2,0 m -3.5,4.2 c 1,1.1 1.5,2.8 2.4,3.9 1.3,-1.7 2.3,-3.5 3.8,-5 -1.8,-0.1 -3.6,0.1 -5.4,-0.1 -0.3,0.4 -0.5,0.8 -0.8,1.2 z"
   id="path5"
   inkscape:connector-curvature="0" />

	<path
   d="m 712.5,88 c 2.1,-0.9 4.8,0.3 5.4,2.5 0.6,2 -0.5,4.3 -2.5,4.9 -1.9,0.7 -4.3,-0.2 -5,-2.2 -0.8,-1.8 0.1,-4.4 2.1,-5.2 m -0.6,1.2 c -1.6,1.4 -1.4,4.2 0.4,5.3 1.1,0.8 2.6,0.6 3.8,0.1 -0.7,-0.8 -1.3,-1.7 -1.8,-2.6 -0.2,0 -0.7,0 -0.9,-0.1 -0.1,0.8 0.3,1.8 -0.5,2.3 -0.3,-1.6 -0.1,-3.2 -0.2,-4.8 1,0 2.3,-0.4 3.1,0.4 0.6,0.8 0,1.9 -0.9,2.2 0.4,0.5 0.7,1.1 1.1,1.6 l 0.2,-0.5 c 0,0.3 -0.1,0.9 -0.2,1.3 1.7,-1 1.9,-3.6 0.6,-5 -1.2,-1.3 -3.5,-1.4 -4.7,-0.2 m 1.4,0.7 c 0,0.5 0,1.1 0,1.6 0.7,-0.1 2.1,0.2 2.1,-0.9 -0.2,-0.9 -1.5,-0.6 -2.1,-0.7 z"
   id="path7"
   inkscape:connector-curvature="0" />

	<path
   d="m 0,97.6 c 0.1,-5 4.6,-9.3 9.5,-9.4 8.5,0 17.1,0 25.7,0 4.9,0 9.3,4.3 9.6,9.2 -11.3,0 -22.5,0 -33.8,0 0,7.5 0,15.1 0,22.6 11.3,0 22.5,0 33.8,0 -0.2,3.2 -2,6.3 -4.8,7.9 -1.7,1 -3.6,1.4 -5.5,1.4 -8.4,0 -16.8,0 -25.1,0 C 4.5,129.2 0.1,124.8 0.1,119.9 0,112.5 0,105.1 0,97.6 Z"
   id="path9"
   inkscape:connector-curvature="0" />

	<path
   d="m 57.4,88.6 c 1.1,-0.3 2.3,-0.4 3.5,-0.4 8.7,0 17.3,0 26,0 4.9,0.2 9.1,4.4 9.3,9.3 0,7.4 0,14.9 0,22.3 -0.1,5 -4.6,9.5 -9.6,9.5 -9,0 -18,0 -27,0 -4.9,-0.1 -9.3,-4.5 -9.3,-9.4 0,-7.3 0,-14.6 0,-22 -0.2,-4.2 2.9,-8.2 7.1,-9.3 m 2.8,8.6 c 0,7.8 0,15.6 0,23.4 8.6,0 17.3,0 25.9,0 0,-7.8 0,-15.6 0,-23.4 -8.7,0 -17.3,0 -25.9,0 z"
   id="path11"
   inkscape:connector-curvature="0" />

	<path
   d="m 103.7,118.4 c 0,-10.1 0,-20.2 0,-30.2 3,0.1 6.1,1.4 7.9,3.9 1.3,1.7 2,3.8 2.1,5.9 0,7.5 0,15.1 0,22.6 8.6,-0.1 17.2,0 25.9,0 0,-10.8 0,-21.5 0,-32.3 3.3,0 6.7,0 10,0 0,10.6 0,21.1 0,31.7 -0.1,5 -4.4,9.3 -9.4,9.5 -8.9,0.1 -17.8,0 -26.7,0 -3.9,0 -7.7,-2.5 -9.2,-6.2 -0.5,-1.6 -0.6,-3.2 -0.6,-4.9 z"
   id="path13"
   inkscape:connector-curvature="0" />

	<path
   d="m 158.1,88.2 c 5.4,-0.4 11.1,1.1 15.3,4.7 8,7.6 16.1,15.1 24.1,22.6 0,-5.7 0,-11.5 0,-17.2 -0.1,-3.6 1.9,-7.1 5.1,-8.9 1.5,-0.9 3.2,-1.2 4.9,-1.3 0.1,13.7 0,27.5 0,41.2 -3.2,0 -6.4,0 -9.7,0 -9.9,-9.4 -19.8,-18.8 -29.7,-28.2 0,9.4 0,18.8 0,28.2 -3.3,0 -6.7,0 -10,0 0,-13.6 0,-27.3 0,-41.1 z"
   id="path15"
   inkscape:connector-curvature="0" />

	<path
   d="m 210.6,97.2 c 0,-4.6 3.8,-9.1 8.6,-8.9 12.7,0 25.4,0 38.1,0 0,2.3 -1,4.6 -2.5,6.3 -1.7,1.8 -4.2,2.6 -6.6,2.6 -3.1,0 -6.3,0 -9.4,0 0,10.7 0,21.5 0,32.2 -3.4,0 -6.7,0 -10.1,0 0,-10.7 0,-21.5 0,-32.2 -6,0 -12,0 -18.1,0 z"
   id="path17"
   inkscape:connector-curvature="0" />

	<path
   d="m 260.8,88.3 c 13.3,0 26.6,0 40,0 -0.1,2.9 -1.5,5.9 -3.9,7.5 -1.5,1 -3.4,1.5 -5.2,1.5 -6.9,0 -13.9,0 -20.8,0 0,2.4 0,4.7 0,7.1 8.4,0 16.8,0 25.3,0 0,3.5 -2.1,7 -5.4,8.4 -1.2,0.5 -2.6,0.7 -3.9,0.7 -5.3,0 -10.6,0 -15.9,0 0,2.4 0,4.8 0,7.1 10,0 20,0 30.1,0 0,4.5 -3.6,8.8 -8.2,8.9 -10.7,0 -21.3,0 -32,0 0,-13.8 -0.1,-27.5 -0.1,-41.2 z"
   id="path19"
   inkscape:connector-curvature="0" />

	<path
   d="m 307,88.3 c 10,0 20,0 30.1,0 3.5,0.1 7.4,0.5 10.1,3 2.6,2.6 2.9,6.6 2.9,10.1 -0.1,3 0,6.1 -1.2,8.8 -1.6,2.7 -4.4,4.6 -7.5,5.4 4.4,5 8.7,10.1 13.1,15.1 -3.6,0 -7.2,0 -10.7,0 -1.1,0 -2.2,0 -3.1,-0.5 -1.1,-0.6 -1.8,-1.7 -2.6,-2.6 -5.4,-6.6 -10.7,-13.3 -16.1,-19.9 4.5,0 9.1,0 13.6,0 1.3,-0.1 2.7,-0.1 3.7,-1.1 0.8,-1.3 0.6,-2.9 0.7,-4.4 -0.1,-1.3 0.1,-2.8 -0.8,-3.9 -1,-0.8 -2.4,-0.9 -3.6,-0.9 -6.2,0 -12.3,0 -18.5,0 0,10.7 0,21.5 0,32.2 -3.4,0.1 -6.7,0 -10.1,0 -0.1,-13.9 0,-27.6 0,-41.3 z"
   id="path21"
   inkscape:connector-curvature="0" />

	<path
   d="m 445.6,94.2 c 1.5,-3.5 5.1,-5.9 8.9,-5.9 8.2,0 16.4,0 24.5,0 2,-0.1 4.1,0.2 5.9,1.2 2.8,1.5 4.6,4.5 5.1,7.6 -11.7,0.1 -23.5,0 -35.2,0 0,2.4 0,4.7 0,7.1 8,0 15.9,0 23.9,0 1.8,0 3.7,-0.1 5.5,0.5 4,1.3 6.8,5.4 6.6,9.6 -0.1,3 0.4,6.2 -0.8,9.1 -1.5,3.5 -5.2,6 -9,5.9 -8.9,0 -17.8,0 -26.8,0 -4.8,-0.1 -9.1,-4.2 -9.4,-8.9 12,0 23.9,0 35.9,0 0,-2.4 0,-4.9 0,-7.3 -8.7,0 -17.5,0 -26.2,0 -5.3,0.1 -10.1,-4.7 -9.8,-10 0.2,-2.9 -0.4,-6.1 0.9,-8.9 z"
   id="path23"
   inkscape:connector-curvature="0" />

	<path
   d="m 498.2,88.9 c 1.7,-0.8 3.6,-0.6 5.3,-0.6 11.2,0 22.4,0 33.5,0 0,3.5 -2.1,7.1 -5.6,8.3 -2.2,0.8 -4.5,0.6 -6.8,0.6 -1.7,0 -3.3,0 -5,0 0,10.7 0,21.5 0,32.2 -3.3,0 -6.7,0 -10,0 0,-10.7 0,-21.5 0,-32.2 -5.6,0.1 -11.3,0 -16.9,0 0.2,-3.5 2.2,-7 5.5,-8.3 z"
   id="path25"
   inkscape:connector-curvature="0" />

	<path
   d="m 541,88.3 c 10,0 19.9,0 29.9,0 3.4,0.1 7.2,0.4 10,2.7 2.8,2.5 3.2,6.5 3.2,10 -0.1,3 0,6.2 -1.1,9.1 -1.6,2.8 -4.4,4.7 -7.5,5.5 2.9,3.2 5.8,6.5 8.7,9.7 1.2,1.4 2.5,2.6 3.6,4.2 -3.7,0 -7.5,0 -11.2,0 -1.5,0 -3.1,-0.6 -4,-1.8 -5.5,-6.7 -11,-13.3 -16.5,-20 4.6,0 9.2,0 13.8,0 1.4,-0.1 3.3,-0.2 3.7,-1.8 0.5,-2.2 0.5,-4.5 0.1,-6.7 -0.3,-1.6 -2.2,-1.8 -3.5,-1.9 -6.4,0 -12.7,0 -19.1,0 0,10.7 0,21.5 0,32.2 -3.4,0 -6.7,0 -10.1,0 0,-13.8 0,-27.5 0,-41.2 z"
   id="path27"
   inkscape:connector-curvature="0" />

	<path
   d="m 595.3,88.3 c 3.3,0 6.7,0 10,0 0.1,13.7 0,27.5 0,41.2 -3.3,0 -6.7,0 -10,0 0,-13.8 0,-27.5 0,-41.2 z"
   id="path29"
   inkscape:connector-curvature="0" />

	<path
   d="m 616.6,88.3 c 3.3,0 6.7,0 10,0 0,5.2 0,10.4 0,15.7 0.6,-0.1 1.3,0.1 1.8,-0.4 6.5,-5.1 12.9,-10.2 19.4,-15.3 4.9,0 9.7,0 14.6,0 -7.6,6.7 -15.3,13.3 -23,20 9,7.1 18.1,14.1 27,21.2 -4.9,0 -9.7,0 -14.6,0 -1.3,0 -2.5,-0.4 -3.5,-1.2 -6.8,-5.1 -13.6,-10.3 -20.3,-15.4 -0.5,0 -1,0 -1.5,0 0,5.5 0,11.1 0,16.6 -3.3,-0.1 -6.7,0 -10,0 0.1,-13.8 0.1,-27.5 0.1,-41.2 z"
   id="path31"
   inkscape:connector-curvature="0" />

	<path
   d="m 667.4,88.3 c 13.3,0 26.7,0 40,0 -0.1,2.5 -1.1,4.9 -2.9,6.6 -1.8,1.6 -4.2,2.4 -6.6,2.3 -6.8,0 -13.6,0 -20.5,0 0,2.4 0,4.7 0,7.1 8.4,0 16.9,0 25.3,0 -0.1,3.6 -2.2,7.2 -5.7,8.4 -2.1,0.9 -4.4,0.6 -6.6,0.6 -4.3,0 -8.7,0 -13,0 -0.1,2.4 -0.1,4.8 0,7.1 10,0 20,0 30,0 0.1,3.7 -2.4,7.4 -6,8.5 -1.9,0.6 -3.9,0.4 -5.8,0.4 -9.5,0 -18.9,0 -28.4,0 0.3,-13.6 0.2,-27.3 0.2,-41 z"
   id="path33"
   inkscape:connector-curvature="0" />

	<path
   d="m 452.4,145 c 1,-1.2 2.8,-1.2 4.3,-1.3 1.9,0 3.9,-0.1 5.7,0.6 1.4,0.7 1.4,2.5 1.5,3.9 -0.9,0 -1.9,0 -2.8,0 -0.2,-0.8 -0.2,-1.9 -1.2,-2 -1.5,-0.2 -3.1,-0.3 -4.6,0.1 -1.2,0.4 -1.1,1.9 -1.2,3 0.1,1.8 -0.2,3.7 0.3,5.5 0.3,1 1.5,1.1 2.4,1.2 1.2,0 2.6,0.2 3.7,-0.4 0.8,-0.7 0.6,-2 0.7,-3 -1.2,0 -2.5,0 -3.7,0 0,-0.7 0,-1.4 0,-2.1 2.1,0 4.3,0 6.4,0 -0.1,2.3 0.5,4.9 -1,6.8 -1.7,1.2 -3.9,1 -5.8,1.1 -1.8,-0.1 -4.1,-0.1 -5.1,-1.8 -1,-2 -0.8,-4.4 -0.7,-6.6 0.1,-1.7 -0.1,-3.6 1.1,-5 z"
   id="path35"
   inkscape:connector-curvature="0" />

	<path
   d="m 470.2,143.8 c 0.9,0 1.9,0 2.8,0 0,4 0,8 0,12 2.3,0.1 4.6,0 6.8,0 0,0.8 0,1.7 0,2.5 -3.2,0 -6.4,0 -9.6,0 0,-4.8 0,-9.7 0,-14.5 z"
   id="path37"
   inkscape:connector-curvature="0" />

	<path
   d="m 487.8,144 c 2.6,-0.5 5.3,-0.6 7.8,0.2 1.9,0.7 2,3 2.2,4.8 0,2.6 0.3,5.4 -0.8,7.8 -1.1,1.5 -3.2,1.5 -4.9,1.6 -2,0 -4.4,0.2 -6,-1.2 -1.1,-1.4 -1.1,-3.3 -1.2,-4.9 0,-2.2 -0.1,-4.4 0.7,-6.5 0.2,-1 1.2,-1.6 2.2,-1.8 m 1.5,2.2 c -0.5,0.1 -1.2,0.3 -1.3,0.9 -0.4,2.1 -0.3,4.2 -0.3,6.3 0.1,0.9 0.1,2.3 1.3,2.4 1.7,0.2 3.8,0.6 5.4,-0.4 0.8,-2 0.5,-4.3 0.5,-6.5 -0.1,-0.9 0.1,-2.3 -1,-2.6 -1.5,-0.4 -3.1,-0.3 -4.6,-0.1 z"
   id="path39"
   inkscape:connector-curvature="0" />

	<path
   d="m 504,143.8 c 2.7,0 5.4,0 8.1,0 1.2,0.1 2.7,0.4 3.1,1.7 0.6,1.8 0.5,4.6 -1.7,5.3 2.7,0.6 2.8,4.1 1.8,6.1 -0.7,1.2 -2.3,1.4 -3.6,1.4 -2.6,0 -5.2,0 -7.7,0 0,-4.8 0,-9.7 0,-14.5 m 2.8,2.3 c 0,1.2 0,2.5 0,3.7 1.5,0 3,0.1 4.5,-0.1 1.9,0 1.8,-3.5 0,-3.6 -1.5,-0.1 -3,0 -4.5,0 m 0,9.9 c 1.7,0 3.3,0.1 5,-0.1 1.6,-0.2 1.4,-2.4 0.9,-3.5 -1.8,-0.9 -3.9,-0.2 -5.9,-0.5 0,1.4 0,2.7 0,4.1 z"
   id="path41"
   inkscape:connector-curvature="0" />

	<path
   d="m 525.7,143.8 c 1.4,-0.1 2.8,0 4.2,0 1.6,4.8 3.3,9.7 4.9,14.5 -1,0 -1.9,0 -2.9,0 -0.3,-0.9 -0.6,-1.9 -0.9,-2.8 -2.1,0 -4.2,0 -6.2,0 -0.3,0.9 -0.6,1.9 -0.9,2.8 -1,0 -2,0 -3,0 1.6,-4.8 3.3,-9.6 4.8,-14.5 m -0.3,9.7 c 1.6,0 3.3,0 4.9,0 -0.8,-2.4 -1.6,-4.9 -2.4,-7.3 -1,2.3 -1.6,4.8 -2.5,7.3 z"
   id="path43"
   inkscape:connector-curvature="0" />

	<path
   d="m 540.4,143.8 c 0.9,0 1.9,0 2.8,0 0,4 0,8 0,12 2.3,0 4.5,0 6.8,0 0,0.8 0,1.7 0,2.5 -3.2,0 -6.4,0 -9.6,0 0,-4.8 0,-9.7 0,-14.5 z"
   id="path45"
   inkscape:connector-curvature="0" />

	<path
   d="m 568.1,143.9 c 2.5,-0.4 5.2,-0.6 7.6,0.3 1.7,0.6 2,2.7 2.1,4.3 0.1,2.6 0.3,5.3 -0.6,7.8 -0.5,1.5 -2.4,1.8 -3.8,2 -2.2,0.1 -4.5,0.3 -6.6,-0.6 -1.5,-0.7 -1.8,-2.6 -1.9,-4 -0.2,-2.6 -0.2,-5.3 0.5,-7.9 0.4,-1.1 1.6,-1.7 2.7,-1.9 m 1.1,2.3 c -0.8,0.1 -1.3,0.8 -1.3,1.6 -0.2,2.3 -0.3,4.8 0.1,7.1 0.3,1.2 1.9,1.1 2.9,1.2 1.2,-0.1 2.8,0.2 3.7,-0.8 0.7,-2 0.4,-4.2 0.4,-6.3 -0.1,-0.9 0,-2.4 -1.1,-2.6 -1.6,-0.5 -3.2,-0.4 -4.7,-0.2 z"
   id="path47"
   inkscape:connector-curvature="0" />

	<path
   d="m 584,143.8 c 3.2,0 6.4,0 9.6,0 0,0.8 0,1.6 0,2.3 -2.3,0 -4.6,0 -6.9,0 0,1.3 0,2.6 0,3.9 2.2,0 4.4,0 6.5,0 0,0.8 0,1.6 0,2.4 -2.2,0 -4.4,0 -6.5,0 0,2 0,4 0,5.9 -0.9,0 -1.8,0 -2.8,0 0.1,-4.8 0.2,-9.7 0.1,-14.5 z"
   id="path49"
   inkscape:connector-curvature="0" />

	<path
   d="m 599.7,143.8 c 3.2,0 6.4,0 9.7,0 0,0.8 0,1.6 0,2.3 -2.3,0 -4.6,0 -6.9,0 0,1.3 0,2.6 0,3.9 2.2,0 4.3,0 6.5,0 0,0.8 0,1.6 0,2.4 -2.2,0 -4.3,0 -6.5,0 0,2 0,4 0,6 -0.9,0 -1.9,0 -2.8,0 0,-4.9 0,-9.8 0,-14.6 z"
   id="path51"
   inkscape:connector-curvature="0" />

	<path
   d="m 615.1,143.8 c 3.3,0 6.6,0 9.9,0 0,0.8 0,1.6 0,2.4 -2.4,0 -4.8,0 -7.2,0 0,1.2 0,2.5 0,3.7 2.3,0 4.5,0 6.8,0 0,0.7 0,1.4 0,2.1 -2.3,0 -4.6,0 -6.8,0 0,1.3 0,2.7 0,4 2.4,0.1 4.8,0 7.3,0 0,0.8 0,1.6 0,2.3 -3.3,0 -6.7,0 -10,0 0,-4.8 0,-9.7 0,-14.5 z"
   id="path53"
   inkscape:connector-curvature="0" />

	<path
   d="m 631.5,143.8 c 1.6,0 3.1,0 4.7,0 2.1,3.9 4,7.9 6,11.9 0,-4 0,-7.9 0,-11.9 0.9,0 1.9,0 2.8,0 0,4.8 0,9.7 0,14.5 -1.6,0 -3.1,0 -4.7,0 -2.1,-4 -4.3,-8 -6.1,-12.2 0.1,4.1 0,8.1 0.1,12.2 -0.9,0 -1.9,0 -2.8,0 0,-4.8 0,-9.7 0,-14.5 z"
   id="path55"
   inkscape:connector-curvature="0" />

	<path
   d="m 651.8,145.4 c 0.7,-1.4 2.5,-1.6 3.8,-1.7 1.9,0 3.9,-0.2 5.7,0.6 1.3,0.7 1.3,2.4 1.4,3.7 -0.9,0.1 -1.8,0.1 -2.8,0 -0.2,-0.7 -0.1,-1.9 -1.1,-2 -1.3,-0.2 -2.7,-0.2 -3.9,0.1 -1,0.4 -0.9,1.7 -0.8,2.5 0.1,1.1 1.4,0.9 2.1,1.1 1.9,0.2 4.1,0 5.8,1.1 1.2,1.5 0.9,3.6 0.6,5.4 -0.3,1.5 -1.8,2 -3.1,2.1 -2.2,0.2 -4.6,0.3 -6.7,-0.4 -1.6,-0.7 -1.6,-2.7 -1.7,-4.2 0.9,0 1.8,0 2.7,0 0.1,0.8 -0.1,2 0.9,2.3 1.6,0.3 3.2,0.4 4.8,-0.1 0.9,-0.7 0.8,-2.2 0.4,-3.2 -1.3,-0.8 -3,-0.4 -4.5,-0.7 -1.4,-0.2 -3.3,-0.2 -3.9,-1.8 -0.3,-1.5 -0.3,-3.3 0.3,-4.8 z"
   id="path57"
   inkscape:connector-curvature="0" />

	<path
   d="m 669.3,143.8 c 0.9,0 1.9,0 2.8,0 0,4.8 0,9.7 0,14.5 -0.9,0 -1.9,0 -2.8,0 0,-4.8 0,-9.7 0,-14.5 z"
   id="path59"
   inkscape:connector-curvature="0" />

	<path
   d="m 677.6,143.8 c 1,0 1.9,0 2.9,0 1.3,4.1 2.8,8.1 3.9,12.2 1.1,-4.1 2.6,-8.2 3.9,-12.2 1,0 2,0 3,0 -1.6,4.8 -3.1,9.7 -4.7,14.5 -1.4,0 -2.9,0 -4.3,0 -1.6,-4.8 -3.1,-9.7 -4.7,-14.5 z"
   id="path61"
   inkscape:connector-curvature="0" />

	<path
   d="m 696.5,143.8 c 3.3,0 6.6,0 10,0 0,0.8 0,1.6 0,2.3 -2.4,0 -4.8,0 -7.2,0 0,1.2 0,2.5 0,3.7 2.3,0 4.5,0 6.8,0 0,0.7 0,1.4 0,2.1 -2.3,0 -4.6,0 -6.8,0 0,1.3 0,2.7 0,4 2.4,0.1 4.8,0 7.3,0 0,0.8 0,1.6 0,2.3 -3.3,0 -6.7,0 -10,0 -0.1,-4.7 -0.1,-9.6 -0.1,-14.4 z"
   id="path63"
   inkscape:connector-curvature="0" />

</g>

</svg>