<?xml version="1.0" encoding="UTF-8" standalone="no"?>
<svg
   xmlns:dc="http://purl.org/dc/elements/1.1/"
   xmlns:cc="http://creativecommons.org/ns#"
   xmlns:rdf="http://www.w3.org/1999/02/22-rdf-syntax-ns#"
   xmlns:svg="http://www.w3.org/2000/svg"
   xmlns="http://www.w3.org/2000/svg"
   xmlns:sodipodi="http://sodipodi.sourceforge.net/DTD/sodipodi-0.dtd"
   xmlns:inkscape="http://www.inkscape.org/namespaces/inkscape"
   enable-background="new 0 0 800 261.953"
   xml:space="preserve"
   height="543.51898"
   viewBox="0 0 996.88607 543.52241"
   width="996.88617"
   version="1.1"
   y="0px"
   x="0px"
   id="svg4"
   sodipodi:docname="coca-cola-logo.svg"
   inkscape:version="0.92.2 (5c3e80d, 2017-08-06)"><metadata
     id="metadata10"><rdf:RDF><cc:Work
         rdf:about=""><dc:format>image/svg+xml</dc:format><dc:type
           rdf:resource="http://purl.org/dc/dcmitype/StillImage" /><dc:title></dc:title></cc:Work></rdf:RDF></metadata><defs
     id="defs8" /><sodipodi:namedview
     pagecolor="#ffffff"
     bordercolor="#666666"
     borderopacity="1"
     objecttolerance="10"
     gridtolerance="10"
     guidetolerance="10"
     inkscape:pageopacity="0"
     inkscape:pageshadow="2"
     inkscape:window-width="1600"
     inkscape:window-height="837"
     id="namedview6"
     showgrid="false"
     inkscape:lockguides="true"
     fit-margin-top="0"
     fit-margin-left="0"
     fit-margin-right="0"
     fit-margin-bottom="0"
     inkscape:zoom="1.1096676"
     inkscape:cx="333.16461"
     inkscape:cy="300.19301"
     inkscape:window-x="-8"
     inkscape:window-y="-8"
     inkscape:window-maximized="1"
     inkscape:current-layer="svg4"
     showguides="false" /><path
     d="m 250.31303,458.34338 c -0.003,0 -0.6185,0.54875 -0.6185,0.54875 -0.8795,0.78625 -1.7845,1.628 -2.877,1.207 -0.30175,-0.10975 -0.514,-0.51175 -0.565,-0.82375 -0.0497,-2.2505 0.96375,-4.3358 1.9465,-6.3662 l 0.252,-0.531 c 2.827,-4.7202 6.113,-10.282 10.939,-14.142 0.81325,-0.58675 1.6958,-1.0798 2.6272,-0.69525 0.21425,0.20075 0.46375,0.54875 0.46375,0.896 0,0.11025 -0.0977,0.40275 -0.15425,0.49375 -1.3478,2.1782 -2.6315,4.465 -3.8798,6.6602 -2.4395,4.3365 -4.9702,8.8185 -8.134,12.753 z m -26.149,-11.124 c -0.18475,0.12875 -3.445,-0.9695 -4.075,-3.9882 -0.5345,-2.599 1.2552,-4.6298 2.9868,-5.6535 0.74325,-0.58575 1.8628,-0.7865 2.684,-0.495 0.76225,0.513 0.96875,1.4285 0.96875,2.415 0,0.605 -0.0802,1.2265 -0.151,1.7935 0,0 -0.0135,0.11025 -0.0157,0.1285 -0.54325,2.0302 -1.3745,4.0248 -2.3978,5.7998 z m -12.454,12.277 c -0.3325,-0.494 -0.44275,-1.0342 -0.45375,-1.6182 -0.0638,-3.5875 3.796,-10.012 6.5205,-13.512 h 0.006 c 1.1418,2.5 3.7272,4.107 5.288,4.7842 -1.9385,4.3182 -8.5868,13.566 -11.36,10.346 z m 47.054,0.637 c -0.64525,0.439 -1.5518,0.1015 -1.2128,-0.9045 0.84425,-2.5615 4.2008,-7.7815 4.2008,-7.7815 l 9.349,-16.582 h -6.404 c -0.30425,0.5 -0.95525,1.6482 -0.95525,1.6482 -0.29625,-0.4935 -1.1822,-1.591 -1.547,-1.828 -1.5645,-0.98875 -3.86,-0.52125 -5.4435,0.375 -6.8848,4.0258 -11.908,11.98 -15.87,18.182 0,0 -4.1702,6.895 -6.4852,7.4078 -1.8072,0.1465 -1.6208,-2.288 -1.5425,-2.8552 0.69875,-4.099 2.3215,-7.9958 3.9565,-11.527 3.3252,-2.3052 7.1202,-5.324 10.569,-8.6355 7.4845,-7.1545 13.794,-15.26 14.716,-17.071 0,0 -0.99825,0.2015 -2.177,0.23775 -5.758,8.032 -17.541,19.706 -21.113,21.443 1.5825,-3.8062 11.807,-21.974 20.508,-30.664 l 1.3692,-1.3178 c 2.117,-2.0675 4.3108,-4.1898 6.0202,-4.5375 0.1805,-0.0182 0.413,0 0.61375,0.4215 0.0763,1.6098 -0.523,2.7992 -1.2105,4.153 l -0.9635,1.9763 c 0,0 1.3648,-0.25625 2.261,-0.54975 1.04,-1.9568 2.1918,-4.153 1.7672,-6.7688 -0.14175,-0.84174 -0.751,-1.482 -1.5472,-1.6285 -2.5955,-0.494 -5.4242,1.4265 -7.7002,2.9822 l -0.092,0.0545 c -11.7,9.1665 -21.58,22.377 -30.218,40.417 -0.626,0.475 -3.0448,1.0428 -3.456,0.768 0.853,-1.756 1.927,-4.1168 2.4645,-6.6782 0.093,-0.732 0.1795,-1.4818 0.1795,-2.2135 0,-1.5748 -0.378,-3.0562 -1.7888,-4.0805 -1.654,-0.8235 -3.6982,-0.439 -5.0765,0.18275 -6.1745,2.5615 -10.789,8.8925 -14.119,14.106 -1.791,3.3125 -3.5768,6.8602 -4.0712,10.923 -0.34825,3.183 0.36075,5.2322 2.1705,6.2572 1.8612,0.95075 4.2038,-0.0375 5.124,-0.51275 6.2552,-3.2932 10.626,-9.8978 14.071,-15.936 0.137,-0.018 2.018,-0.0725 3.4408,-0.439 0.019,0 0.027,0 0.0585,0.0192 -0.0815,0.27325 -0.81675,2.4695 -0.81675,2.4695 -2.1835,6.4032 -3.1932,10.758 -1.1308,13.338 2.9472,3.6412 7.8265,-0.1275 11.796,-5.105 -0.852,5.9645 2.2392,6.898 4.5955,6.441 2.7068,-0.7315 5.723,-3.623 7.1228,-5.1045 -0.4495,1.7378 -0.32725,4.8485 2.135,5.1592 1.6878,0.312 2.9508,-0.606 4.4122,-1.393 5.2422,-2.8545 11.518,-12.366 13.147,-15.116 h -2.1362 c -2.316,3.5002 -5.2632,8.0895 -8.9705,10.268 z m -80.761,-35.518 h 5.9998 l 3.3862,-5.5 h -6.001 z m 95.841,-14.611 c -4.5748,2.5985 -9.317,4.2813 -15.058,3.696 -1.591,1.7935 -3.14,3.6412 -4.5678,5.5438 8.0572,2.0492 16.599,-2.5065 21.363,-6.8422 5.0395,-4.373 7.6238,-9.8797 7.6238,-9.8797 0,0 -3.7775,4.3175 -9.3612,7.4822 z m -50.45,-1.39 c -0.954,10.941 -9.4588,17.364 -11.563,17.875 -1.2752,0.25575 -3.4512,-0.311 -1.5088,-4.9028 2.8608,-6.1848 7.7448,-11.435 12.985,-14.125 0.1275,0.4575 0.12425,0.7495 0.0867,1.1525 z m -16.572,27.572 c -0.60925,-1.317 -2.0558,-2.1588 -3.5972,-2.0675 -5.0058,0.45775 -9.902,4.5742 -12.473,10.484 -1.349,3.0375 -2.0852,5.5438 -2.568,9.5322 1.5565,-1.7925 4.7315,-4.738 8.3345,-6.3482 0,0 0.49025,-3.8238 2.9902,-7.227 0.946,-1.4092 2.8392,-3.6778 4.965,-3.0742 1.8572,0.6225 1.2045,5.7638 -1.264,10.739 -1.8265,3.6598 -4.6215,7.32 -7.4495,9.8442 -2.5002,2.1225 -6.1995,4.6838 -9.436,2.708 -2.0385,-1.207 -3.0782,-3.7325 -2.8585,-6.9892 0.974,-9.2392 5.1798,-17.107 11.198,-26.072 6.206,-8.3248 13.047,-16.869 22.263,-21.426 1.8798,-0.95125 3.6205,-1.1708 5.1252,-0.58525 0,0 -8.651,4.757 -12.775,13.558 -1.049,2.2325 -2.508,5.2505 -1.0388,7.922 0.76775,1.3902 2.131,1.5002 3.2285,1.427 5.0548,-1.1712 8.3205,-5.8915 10.989,-10.209 1.547,-3.275 2.922,-6.5318 2.922,-10.155 0,-0.439 -0.0228,-1.0242 -0.06,-1.4638 2.415,-1.2802 7.367,0.988 7.367,0.988 3.8698,1.2812 12.11,7.5938 14.889,8.8008 1.3558,-1.5732 3.5838,-3.9515 4.8382,-5.141 l -1.816,-1.1162 c -2.9075,-1.7748 -5.9808,-3.4582 -9.0058,-5.123 -6.8698,-3.7502 -12.462,-2.4332 -15.308,-1.4085 -1.1185,0.40225 -2.1408,0.75 -2.1408,0.75 -2.112,-2.3052 -5.5758,-2.0862 -8.128,-1.4637 -9.1785,2.6345 -17.7,9.0562 -26.836,20.199 -6.717,8.7275 -10.884,16.266 -13.104,23.712 -1.7118,5.0128 -2.232,12.386 1.946,16.759 3.5522,3.713 8.2625,2.9088 11.589,1.5735 7.2068,-3.5495 13.684,-11.198 16.912,-19.998 0.77875,-2.616 1.6432,-6.3118 0.30225,-9.1298 z m -79.885,-8.4888 c -0.012,0.0365 -1.224,2.8172 -1.224,2.8172 -0.17525,0.14625 -0.45225,0.0733 -0.76975,0 l -0.544,-0.092 c -1.7082,-0.53025 -2.9968,-1.6648 -3.394,-3.0185 -0.548,-2.6348 1.7028,-4.7022 2.6945,-5.452 0.9515,-0.65925 2.4308,-1.0068 3.2898,-0.3295 0.52975,0.62225 0.7305,1.427 0.7305,2.3058 2.5e-4,1.189 -0.36675,2.5245 -0.783,3.769 z m -2.6035,5.287 c 0,0 -0.055,0.16525 -0.0822,0.21925 -0.007,0 -2.755,4.482 -2.755,4.482 -1.6585,2.2142 -3.7292,4.996 -6.3178,6.331 -0.76725,0.25625 -1.8278,0.42125 -2.3682,-0.25525 -1.1458,-1.3725 -0.55525,-3.2752 -0.0755,-4.812 l 0.16975,-0.549 c 1.3755,-3.732 3.558,-7.026 5.6822,-10.082 0.0265,-0.018 0.086,-0.0362 0.1075,-0.0362 0.005,0.0183 0.0135,0.0183 0.0172,0.055 1.333,2.561 3.8325,3.7498 5.7018,4.2995 0.0113,0 0.0233,0.0182 0.0233,0.055 2.5e-4,0.0545 -0.0303,0.12825 -0.103,0.29225 z m 34.376,-2.9455 c 1.2292,-1.7012 4.807,-6.2572 5.6792,-7.0255 2.9335,-2.5808 4.106,-1.4452 4.2075,-0.64075 -2.7378,4.9032 -5.969,10.52 -9.007,15.57 0.006,-0.018 -0.95075,1.4452 -0.95075,1.4452 -1.3418,2.0488 -2.6928,3.8052 -4.8965,5.031 -0.31425,0.092 -0.83225,0.12875 -1.177,-0.12825 -0.415,-0.2745 -0.57875,-0.732 -0.532,-1.208 0.132,-1.573 1.7338,-6.384 6.6765,-13.044 z m -30.465,-11.124 c -3.7925,-2.4882 -11.415,2.2688 -17.52,10.428 -5.583,7.3192 -7.9938,15.826 -5.3702,19.76 3.9028,4.6288 11.148,-2.104 14.229,-5.7078 l 0.3975,-0.42125 c 2.0952,-2.2505 3.714,-4.9585 5.2808,-7.5568 0,0 1.44,-2.3785 1.5088,-2.4885 0.89,-0.164 1.962,-0.42025 3.17,-0.768 -0.0172,0.0545 -4.6218,7.794 -4.152,11.636 0.14625,1.172 0.0345,5.4532 4.2145,6.752 5.571,0.93375 10.02,-3.3848 13.944,-7.227 0,0 0.66875,-0.63975 1.047,-1.005 -0.0957,0.38325 -0.2205,0.8945 -0.2205,0.8945 -1.631,5.672 0.5675,6.862 1.9428,7.3012 4.1562,1.2082 9.1215,-4.83 9.1375,-4.83 -0.12875,1.902 -0.50525,3.4755 1.4998,4.738 1.8925,0.6775 3.8078,-0.35525 5.2635,-1.325 5.2438,-3.6958 9.4682,-9.48 12.88,-14.48 h -2.1765 c -0.0257,0 -5.3708,7.747 -8.8415,9.4308 -0.005,0 -0.637,0.32425 -1.001,0.0677 -0.4505,-0.3845 -0.27275,-1.1835 0.005,-1.7495 0.0175,-0.037 13.401,-23.249 13.401,-23.249 h -6.319 c 0,0 -0.69025,1.1168 -0.7465,1.19 -0.0425,-0.0365 -0.14375,-0.2285 -0.214,-0.3205 -3.915,-5.4155 -12.781,2.9145 -19.456,12.574 -2.5698,3.7145 -5.8415,7.8968 -9.234,10.916 0,0 -5.0258,4.607 -7.1732,1.297 -0.785,-1.3908 -0.5435,-3.424 -0.10075,-4.7592 2.5002,-7.1172 6.8085,-13.576 11.711,-17.474 1.384,-1.0788 2.8882,-1.3908 3.6348,-0.93325 0.71125,0.4215 0.826,1.4635 0.376,2.1772 -1.1418,-0.0365 -2.0565,0.3105 -2.8002,1.079 -1.465,1.537 -1.974,3.0192 -1.5082,4.41 2.2628,3.22 6.7755,-3.1472 6.5572,-7.026 -0.078,-1.3908 -0.82,-2.7078 -1.9272,-3.3488 -1.6502,-0.9875 -4.1678,-0.73175 -5.797,0.0555 -2.181,0.823 -5.6335,3.6952 -7.6488,5.9278 -2.537,2.7998 -6.888,5.9098 -8.2488,5.5615 0.44575,-1.1898 4.121,-8.7092 0.25475,-11.526 z m 31.762,40.709 c -7.442,-4.794 -17.542,-5.6352 -33.83,-1.1162 -17.364,4.0805 -23.154,6.6962 -30.756998,1.4452 -2.921,-2.5795 -3.9683,-6.7328 -3.1862,-12.715 1.8138,-9.7525 6.7152,-19.138 15.421998,-29.548 4.8598,-5.4155 9.3675,-10.063 15.32,-11.929 4.562,-1.1708 4.1355,2.4145 3.5835,2.9272 -0.5825,0 -1.561,0.0918 -2.3172,0.58525 -0.61375,0.476 -2.2985,2.013 -2.389,4.0805 -0.1305,3.165 3.145,2.5062 4.5578,0.7685 1.5228,-1.9582 3.7732,-5.7083 2.003,-9.2033 -0.742,-1.244 -2.024,-2.1037 -3.6158,-2.3965 -5.4505,-0.3115 -10.527,2.2867 -15.212,5.1592 -10.242998,7.117 -18.438998,16.979 -23.075998,27.774 -2.6738,6.5132 -5.0918,15.843 -1.4672,23.437 2.8038,5.269 8.6248,8.0678 15.569998,7.4825 4.8708,-0.51175 10.76,-2.086 14.722,-3.0365 3.9612,-0.952 24.238,-7.9222 30.901,4.209 0,0 2.2155,-4.3008 7.7522,-4.3925 4.552,-0.42 11.119,1.3178 15.901,4.83 -1.5932,-2.396 -6.1102,-5.9272 -9.8785,-8.361 z"
     id="path2"
     inkscape:connector-curvature="0"
     style="fill:#e61d2b;fill-opacity:1"
     inkscape:export-filename="C:\Users\suitedoalex\sites\coca-cola-logo-15.png"
     inkscape:export-xdpi="24.000402"
     inkscape:export-ydpi="24.000402" /><rect
     style="fill:#e61d2b;fill-opacity:1;fill-rule:evenodd;stroke-width:1.00000632"
     id="rect817"
     width="200.02498"
     height="123.62223"
     x="-0.00064759183"
     y="0"
     inkscape:export-filename="C:\Users\suitedoalex\sites\coca-cola-logo-18.png"
     inkscape:export-xdpi="24.07349"
     inkscape:export-ydpi="24.07349" /><rect
     style="fill:#e61d2b;fill-opacity:1;fill-rule:evenodd;stroke-width:1.0374397"
     id="rect834"
     width="123.62223"
     height="123.62223"
     x="99.815758"
     y="-273.37082"
     transform="scale(1,-1)"
     inkscape:export-filename="C:\Users\suitedoalex\sites\coca-cola-logo-17.png"
     inkscape:export-xdpi="38.828213"
     inkscape:export-ydpi="38.828213" /><circle
     style="opacity:0.95;fill:#e61d2b;fill-opacity:1;fill-rule:nonzero;stroke:#e61d2b;stroke-width:15.11820602;stroke-linecap:butt;stroke-linejoin:miter;stroke-miterlimit:4;stroke-dasharray:none;stroke-opacity:1;paint-order:fill markers stroke"
     id="path836"
     cx="344.41168"
     cy="249.47476"
     r="62.12973"
     inkscape:export-filename="C:\Users\suitedoalex\sites\coca-cola-logo-16.png"
     inkscape:export-xdpi="34.439999"
     inkscape:export-ydpi="34.439999" /><path
     inkscape:connector-curvature="0"
     style="fill:#ffffff;stroke-width:0.76103699"
     d="m 151.08272,79.392603 c -0.002,0 -0.4707,0.41762 -0.4707,0.41762 -0.66933,0.59837 -1.35808,1.23897 -2.1895,0.91857 -0.22965,-0.0835 -0.39118,-0.38946 -0.42999,-0.6269 -0.0378,-1.71271 0.73345,-3.2997 1.48135,-4.84491 l 0.19179,-0.40412 c 2.15145,-3.59224 4.65221,-7.82498 8.32498,-10.76258 0.61892,-0.44654 1.29057,-0.82177 1.9994,-0.52911 0.16305,0.15278 0.35293,0.41762 0.35293,0.68189 0,0.0839 -0.0744,0.30651 -0.11739,0.37576 -1.02573,1.65769 -2.00266,3.39803 -2.95267,5.06866 -1.85655,3.30024 -3.7825,6.7112 -6.19027,9.7055 z m -19.90036,-8.46577 c -0.1406,0.098 -2.62177,-0.73783 -3.10122,-3.03517 -0.40678,-1.97794 0.95525,-3.52345 2.27307,-4.30252 0.56564,-0.44578 1.41766,-0.59856 2.04261,-0.37672 0.58011,0.39042 0.73727,1.08714 0.73727,1.83791 0,0.46043 -0.061,0.93341 -0.11492,1.36492 0,0 -0.0103,0.0839 -0.012,0.0978 -0.41344,1.54506 -1.04605,3.06302 -1.82482,4.41386 z m -9.47795,9.34325 c -0.25305,-0.37595 -0.33695,-0.78707 -0.34533,-1.23151 -0.0486,-2.73022 2.8889,-7.6195 4.96235,-10.28313 h 0.005 c 0.86896,1.90259 2.83654,3.12558 4.02437,3.64095 -1.47528,3.28631 -6.53488,10.32423 -8.64539,7.87369 z m 35.80983,0.48478 c -0.49105,0.33409 -1.18098,0.0772 -0.92299,-0.68836 0.64252,-1.9494 3.19698,-5.92201 3.19698,-5.92201 l 7.11493,-12.61951 h -4.87368 c -0.23155,0.38051 -0.72699,1.25434 -0.72699,1.25434 -0.22545,-0.37557 -0.8997,-1.21081 -1.17732,-1.39118 -1.19064,-0.75247 -2.9376,-0.39669 -4.1427,0.28539 -5.23959,3.06378 -9.06244,9.11722 -12.07766,13.83718 0,0 -3.17368,5.24735 -4.93547,5.63761 -1.37535,0.11149 -1.23349,-1.74126 -1.1739,-2.17292 0.53176,-3.11949 1.76674,-6.0851 3.01103,-8.77247 2.5306,-1.75434 5.41875,-4.05176 8.04341,-6.57194 5.69598,-5.44484 10.49774,-11.61342 11.19941,-12.99166 0,0 -0.7597,0.15335 -1.65677,0.18094 -4.38206,6.11265 -13.34935,14.99699 -16.06778,16.31891 1.20434,-2.89665 8.98557,-16.72302 15.60735,-23.33643 l 1.04201,-1.0029 c 1.61112,-1.57344 3.28069,-3.18859 4.58159,-3.4532 0.13737,-0.0139 0.31431,0 0.46709,0.32077 0.0581,1.22512 -0.39802,2.1303 -0.92123,3.16059 l -0.73326,1.50404 c 0,0 1.03867,-0.19502 1.72071,-0.41838 0.79147,-1.4892 1.66804,-3.16059 1.3449,-5.15131 -0.10788,-0.6406 -0.57154,-1.12786 -1.17747,-1.23935 -1.97527,-0.37595 -4.12803,1.08562 -5.86014,2.26957 l -0.07,0.0415 c -8.90414,6.97605 -16.42319,17.02973 -22.99702,30.75883 -0.47641,0.3615 -2.3172,0.79361 -2.63015,0.58448 0.64917,-1.33638 1.46653,-3.13304 1.87558,-5.08236 0.0708,-0.55708 0.1366,-1.1277 0.1366,-1.68455 0,-1.19848 -0.28766,-2.32588 -1.36134,-3.10541 -1.25875,-0.62672 -2.81446,-0.3341 -3.8634,0.13908 -4.69902,1.94939 -8.21082,6.76752 -10.74508,10.73518 -1.36301,2.52094 -2.72207,5.22087 -3.09834,8.31281 -0.26503,2.42238 0.27455,3.9819 1.65184,4.76196 1.41644,0.72356 3.19924,-0.0285 3.89955,-0.39022 4.76044,-2.50625 8.08678,-7.53259 10.70855,-12.12789 0.10427,-0.0137 1.53577,-0.0552 2.61858,-0.33409 0.0145,0 0.0206,0 0.0445,0.0146 -0.062,0.20795 -0.62157,1.87938 -0.62157,1.87938 -1.66173,4.87307 -2.43015,8.18724 -0.86058,10.15071 2.24293,2.77109 5.95626,-0.097 8.97719,-3.88509 -0.6484,4.5392 1.70412,5.24963 3.49734,4.90184 2.05998,-0.5567 4.35542,-2.75724 5.42072,-3.88471 -0.34209,1.32253 -0.24905,3.68988 1.62482,3.92634 1.28447,0.23744 2.24566,-0.46119 3.35784,-1.06013 3.9895,-2.17238 8.76562,-9.41098 10.00535,-11.50383 h -1.62572 c -1.76257,2.66378 -4.0055,6.15641 -6.82689,7.81433 z M 96.052137,53.724353 h 4.566073 l 2.57702,-4.18571 h -4.566983 z m 72.938543,-11.11951 c -3.48159,1.97755 -7.09058,3.25822 -11.4597,2.81279 -1.21081,1.36492 -2.38965,2.77109 -3.47626,4.21904 6.13183,1.55951 12.63246,-1.90754 16.25804,-5.20717 3.83524,-3.32802 5.80198,-7.51882 5.80198,-7.51882 0,0 -2.87481,3.28578 -7.12421,5.69423 z m -38.39431,-1.05785 c -0.72604,8.32651 -7.1985,13.21465 -8.79988,13.60354 -0.97047,0.19464 -2.62649,-0.23668 -1.14825,-3.73121 2.17717,-4.70686 5.89408,-8.70246 9.88207,-10.74965 0.097,0.34818 0.0946,0.5704 0.066,0.8771 z m -12.61191,20.98332 c -0.46366,-1.00229 -1.56454,-1.64293 -2.7376,-1.57345 -3.8096,0.34837 -7.53579,3.48114 -9.49242,7.97871 -1.02664,2.31165 -1.58691,4.21904 -1.95434,7.25436 1.18455,-1.36416 3.60084,-3.60579 6.34287,-4.83121 0,0 0.37309,-2.91006 2.27565,-5.50002 0.71993,-1.07245 2.16073,-2.79894 3.77855,-2.33958 1.4134,0.47375 0.91667,4.38647 -0.96195,8.17278 -1.39004,2.78524 -3.51714,5.57079 -5.66935,7.4918 -1.90274,1.6153 -4.71805,3.56454 -7.18115,2.06089 -1.55137,-0.91858 -2.34263,-2.84057 -2.17542,-5.31904 0.74125,-7.03138 3.94202,-13.01906 8.5221,-19.84176 4.72299,-6.33548 9.92925,-12.83793 16.94296,-16.30598 1.4306,-0.72394 2.75534,-0.89102 3.90047,-0.4454 0,0 -6.58374,3.62026 -9.72225,10.31814 -0.79833,1.69902 -1.90869,3.99583 -0.79057,6.02894 0.58429,1.05799 1.62178,1.14171 2.45701,1.086 3.84689,-0.89133 6.3322,-4.48365 8.36303,-7.76943 1.17733,-2.49239 2.22376,-4.97094 2.22376,-7.72833 0,-0.33409 -0.0173,-0.77945 -0.0457,-1.114 1.8379,-0.97428 5.60656,0.7519 5.60656,0.7519 2.94505,0.97504 9.21615,5.77916 11.33108,6.69773 1.03181,-1.19726 2.7274,-3.00723 3.68204,-3.91249 l -1.38203,-0.84947 c -2.21273,-1.35068 -4.55162,-2.63181 -6.85376,-3.89879 -5.22816,-2.85404 -9.48404,-1.85175 -11.64995,-1.07192 -0.85122,0.30613 -1.62923,0.57078 -1.62923,0.57078 -1.6073,-1.75434 -4.24338,-1.58768 -6.18571,-1.11393 -6.98518,2.00495 -13.47035,6.8921 -20.42319,15.37218 -5.111879,6.64196 -8.283121,12.37903 -9.972623,18.04571 -1.302743,3.81493 -1.698634,9.42621 1.480978,12.75422 2.703356,2.82573 6.288065,2.21371 8.819655,1.19749 5.48465,-2.7013 10.41403,-8.52209 12.87066,-15.21921 0.59266,-1.99088 1.25053,-4.80352 0.23002,-6.94812 z m -60.795446,-6.46029 c -0.0091,0.0278 -0.931509,2.14399 -0.931509,2.14399 -0.133372,0.1113 -0.344179,0.0558 -0.585808,0 l -0.414005,-0.07 c -1.300003,-0.40354 -2.280675,-1.26697 -2.582959,-2.29719 -0.417048,-2.00518 1.295894,-3.57855 2.050614,-4.14917 0.724127,-0.50171 1.849929,-0.76621 2.50366,-0.25076 0.403159,0.47355 0.555937,1.086 0.555937,1.7548 1.9e-4,0.90487 -0.27911,1.92123 -0.595892,2.86835 z m -1.98136,4.0236 c 0,0 -0.04186,0.12576 -0.06256,0.16686 -0.0053,0 -2.096657,3.41096 -2.096657,3.41096 -1.26218,1.68509 -2.838059,3.80214 -4.808079,4.81813 -0.583906,0.19501 -1.391024,0.32059 -1.802288,-0.19426 -0.871996,-1.04452 -0.422566,-2.49254 -0.05746,-3.66211 l 0.129187,-0.41781 c 1.046806,-2.84019 2.707769,-5.34704 4.324364,-7.67277 0.02017,-0.0137 0.06545,-0.0276 0.08181,-0.0276 0.0038,0.0139 0.01027,0.0139 0.01309,0.0419 1.014463,1.94901 2.916675,2.85373 4.339281,3.27208 0.0086,0 0.01773,0.0138 0.01773,0.0419 1.9e-4,0.0415 -0.02306,0.0976 -0.07839,0.22242 z m 26.161415,-2.24164 c 0.935467,-1.29467 3.658305,-4.76196 4.322082,-5.34666 2.232502,-1.96409 3.124817,-1.09985 3.202063,-0.48764 -2.083567,3.73152 -4.54263,8.00611 -6.854661,11.84935 0.0046,-0.0137 -0.723555,1.09985 -0.723555,1.09985 -1.02116,1.55921 -2.049321,2.8959 -3.726418,3.82878 -0.239156,0.07 -0.633373,0.098 -0.89574,-0.0976 -0.315831,-0.2089 -0.44045,-0.55707 -0.404872,-0.91933 0.100457,-1.19711 1.319486,-4.85846 5.081063,-9.92696 z M 58.18407,49.386213 c -2.886233,-1.89361 -8.687237,1.72664 -13.333368,7.93609 -4.24887,5.57018 -6.083578,12.04417 -4.086921,15.03809 2.970175,3.52269 8.48404,-1.60122 10.828795,-4.34384 l 0.302513,-0.32059 c 1.594524,-1.71271 2.826491,-3.7736 4.018884,-5.75101 0,0 1.095893,-1.81012 1.148252,-1.89384 0.677323,-0.12481 1.493155,-0.31982 2.412488,-0.58447 -0.01309,0.0415 -3.517361,5.93152 -3.159826,8.85542 0.111302,0.89194 0.02626,4.15009 3.20739,5.13853 4.239738,0.71061 7.625591,-2.57596 10.6119,-5.50002 0,0 0.508944,-0.48687 0.796806,-0.76484 -0.07283,0.29167 -0.167809,0.68075 -0.167809,0.68075 -1.241251,4.3166 0.431889,5.22223 1.478543,5.55648 3.16303,0.91949 6.941806,-3.67581 6.953983,-3.67581 -0.09798,1.44749 -0.384514,2.64499 1.141403,3.60579 1.440263,0.51561 2.897877,-0.27035 4.005718,-1.00837 3.990726,-2.81264 7.205651,-7.21463 9.802157,-11.01981 h -1.656397 c -0.01956,0 -4.087378,5.89575 -6.728709,7.17718 -0.0038,0 -0.48478,0.24677 -0.761798,0.0515 -0.342847,-0.29261 -0.207573,-0.90068 0.0038,-1.33143 0.01332,-0.0282 10.198657,-17.69335 10.198657,-17.69335 h -4.808993 c 0,0 -0.525305,0.84993 -0.568114,0.90564 -0.03234,-0.0278 -0.109399,-0.1739 -0.162862,-0.24392 -2.97946,-4.12139 -9.726814,2.21805 -14.806735,9.56928 -1.955721,2.82687 -4.445605,6.00976 -7.027423,8.30748 0,0 -3.82482,3.5061 -5.459071,0.98707 -0.597414,-1.05845 -0.413623,-2.60579 -0.07667,-3.62193 1.902744,-5.41645 5.18152,-10.33184 8.912504,-13.29836 1.053275,-0.82101 2.198027,-1.05845 2.766217,-0.71024 0.541295,0.32078 0.628624,1.11378 0.28615,1.65693 -0.868952,-0.0278 -1.565073,0.2363 -2.131056,0.82116 -1.114919,1.16971 -1.502287,2.29772 -1.147796,3.35617 1.722075,2.45054 5.156414,-2.39513 4.99028,-5.34704 -0.05936,-1.05845 -0.624051,-2.06074 -1.466671,-2.54856 -1.255871,-0.75153 -3.171857,-0.55689 -4.411739,0.0422 -1.659822,0.62634 -4.287302,2.81219 -5.82102,4.51128 -1.930751,2.13075 -5.242022,4.49758 -6.277642,4.23251 0.339233,-0.90548 3.136234,-6.62803 0.193875,-8.77172 z m 24.172064,30.98105 c -5.663637,-3.64841 -13.350118,-4.28859 -25.745889,-0.84947 -13.214646,3.10541 -17.62105,5.09606 -23.407214,1.09985 -2.222989,-1.96309 -3.020023,-5.12391 -2.424816,-9.67658 1.380368,-7.42201 5.110515,-14.56473 11.736712,-22.48712 3.698488,-4.1214 7.129014,-7.65832 11.659087,-9.07841 3.471851,-0.89102 3.147268,1.83752 2.727176,2.2277 -0.443304,0 -1.187979,0.0699 -1.763475,0.4454 -0.467086,0.36226 -1.749244,1.53197 -1.818117,3.10541 -0.09932,2.40869 2.393461,1.90731 3.468654,0.58486 1.158907,-1.49026 2.871545,-4.34423 1.524357,-7.00405 -0.564689,-0.94673 -1.540339,-1.601 -2.751757,-1.82383 -4.148033,-0.23706 -8.011437,1.74027 -11.576895,3.92635 -7.795302,5.4163 -14.032761,12.92164 -17.56169,21.13704 -2.034861,4.95678 -3.875048,12.05711 -1.116593,17.83642 2.133795,4.0099 6.563791,6.13989 11.849346,5.69446 3.706859,-0.38946 8.188758,-1.58752 11.203986,-2.31089 3.01462,-0.72451 18.446015,-6.02909 23.516804,3.20321 0,0 1.686078,-3.27307 5.899719,-3.34286 3.46424,-0.31963 8.46197,1.0029 12.101249,3.67581 -1.212484,-1.82345 -4.650088,-4.51082 -7.517904,-6.36303 z"
     id="path2-3"
     inkscape:export-filename="C:\Users\suitedoalex\sites\coca-cola-logo-18.png"
     inkscape:export-xdpi="24.07349"
     inkscape:export-ydpi="24.07349" /><path
     inkscape:connector-curvature="0"
     style="fill:#ffffff;stroke-width:0.58356255"
     d="m 383.5728,262.95623 c -0.002,0 -0.36094,0.32022 -0.36094,0.32022 -0.51324,0.45884 -1.04137,0.95005 -1.6789,0.70437 -0.1761,-0.0639 -0.29996,-0.29864 -0.32971,-0.4807 -0.0289,-1.3133 0.56241,-2.53022 1.1359,-3.71508 l 0.14707,-0.30987 c 1.64972,-2.75453 3.5673,-6.0002 6.38358,-8.25274 0.47458,-0.3424 0.9896,-0.63013 1.53314,-0.40573 0.12508,0.11722 0.27062,0.32023 0.27062,0.52288 0,0.0644 -0.057,0.23504 -0.0901,0.28813 -0.78652,1.27112 -1.53563,2.60561 -2.26411,3.88664 -1.42361,2.53063 -2.90042,5.14616 -4.74669,7.44217 z m -15.25959,-6.49154 c -0.1078,0.0751 -2.01036,-0.56578 -2.37801,-2.32737 -0.31192,-1.51669 0.73248,-2.70177 1.74298,-3.29917 0.43374,-0.34182 1.08707,-0.45897 1.56629,-0.28886 0.44483,0.29937 0.56533,0.83361 0.56533,1.40931 0,0.35304 -0.0467,0.71573 -0.0882,1.04661 0,0 -0.008,0.0644 -0.01,0.075 -0.31704,1.18475 -0.80211,2.34873 -1.39928,3.38454 z m -7.26768,7.16439 c -0.19403,-0.28827 -0.25838,-0.60352 -0.26478,-0.94432 -0.0371,-2.09352 2.2152,-5.84264 3.80511,-7.88509 h 0.004 c 0.66629,1.45889 2.17505,2.39668 3.08587,2.79187 -1.13123,2.51995 -5.01093,7.91661 -6.62926,6.03754 z m 27.45896,0.37174 c -0.37655,0.25617 -0.90557,0.0593 -0.70774,-0.52784 0.49266,-1.49481 2.45143,-4.54099 2.45143,-4.54099 l 5.45572,-9.67664 h -3.73714 c -0.17755,0.29178 -0.55745,0.96183 -0.55745,0.96183 -0.17287,-0.28799 -0.68988,-0.92844 -0.90277,-1.06676 -0.913,-0.57699 -2.25255,-0.30416 -3.17661,0.21884 -4.01772,2.34931 -6.94907,6.99109 -9.26115,10.61035 0,0 -2.43358,4.02365 -3.78452,4.3229 -1.05462,0.0857 -0.94584,-1.33519 -0.90014,-1.66619 0.40775,-2.39202 1.35473,-4.66604 2.30886,-6.72672 1.94047,-1.34523 4.15509,-3.10689 6.16768,-5.03935 4.36768,-4.17511 8.04967,-8.90517 8.5877,-9.962 0,0 -0.58253,0.11761 -1.27042,0.13875 -3.36015,4.68717 -10.23626,11.49968 -12.32077,12.51331 0.92351,-2.22114 6.89016,-12.82319 11.96772,-17.89435 l 0.79903,-0.76902 c 1.2354,-1.2065 2.51562,-2.44501 3.51315,-2.64791 0.10538,-0.011 0.24102,0 0.35816,0.24596 0.0445,0.93942 -0.30521,1.63352 -0.70641,2.42355 l -0.56225,1.15328 c 0,0 0.79645,-0.14953 1.31944,-0.32081 0.60691,-1.14192 1.27905,-2.42353 1.03127,-3.95003 -0.0828,-0.49119 -0.43825,-0.86483 -0.90289,-0.95031 -1.51462,-0.28828 -3.16536,0.83244 -4.49356,1.7403 l -0.0537,0.0317 c -6.82769,5.34924 -12.59326,13.05838 -17.63407,23.58585 -0.36533,0.2772 -1.77685,0.60853 -2.01682,0.44818 0.4978,-1.02475 1.12453,-2.40242 1.4382,-3.89716 0.0543,-0.42717 0.10472,-0.86472 0.10472,-1.29171 0,-0.91899 -0.22057,-1.78348 -1.04387,-2.38123 -0.9652,-0.48057 -2.15813,-0.25618 -2.96244,0.10659 -3.60322,1.49479 -6.29606,5.18932 -8.23933,8.23173 -1.04516,1.93305 -2.08729,4.00336 -2.37579,6.37427 -0.20324,1.85746 0.21052,3.05331 1.26662,3.65146 1.08613,0.55482 2.45317,-0.0219 2.99017,-0.29922 3.6503,-1.9218 6.20094,-5.77599 8.21129,-9.29967 0.08,-0.011 1.17763,-0.0423 2.00794,-0.25618 0.011,0 0.0158,0 0.0341,0.011 -0.0475,0.15947 -0.47662,1.44112 -0.47662,1.44112 -1.27422,3.73666 -1.86344,6.27797 -0.6599,7.78356 1.71988,2.12486 4.56725,-0.0744 6.88372,-2.97908 -0.4972,3.48064 1.30672,4.02539 2.68174,3.75872 1.5796,-0.42688 3.33974,-2.11425 4.15661,-2.97879 -0.26232,1.0141 -0.19098,2.8294 1.2459,3.0107 0.98495,0.18208 1.72198,-0.35362 2.57481,-0.8129 3.05913,-1.66578 6.72147,-7.21633 7.67209,-8.82111 h -1.24661 c -1.35153,2.04256 -3.0714,4.72071 -5.23485,5.992 z m -47.1291,-20.72698 h 3.50126 l 1.97607,-3.2096 h -3.50197 z m 55.92923,-8.52643 c -2.66968,1.51638 -5.43707,2.4984 -8.7873,2.15684 -0.92844,1.04662 -1.83237,2.12487 -2.66559,3.23517 4.70188,1.19582 9.68655,-1.46271 12.46665,-3.99287 2.94086,-2.55192 4.44896,-5.76543 4.44896,-5.76543 0,0 -2.20441,2.51953 -5.46285,4.36633 z m -29.44073,-0.81117 c -0.55674,6.38477 -5.51981,10.13299 -6.74775,10.43119 -0.74415,0.14925 -2.01399,-0.18148 -0.88048,-2.86109 1.66946,-3.60922 4.51958,-6.67303 7.57757,-8.24283 0.0744,0.26699 0.0725,0.4374 0.0506,0.67257 z m -9.67082,16.09 c -0.35551,-0.76856 -1.19967,-1.25979 -2.09918,-1.20652 -2.9212,0.26713 -5.77843,2.66933 -7.27878,6.11808 -0.78723,1.77256 -1.21684,3.23514 -1.49857,5.56263 0.9083,-1.04603 2.76111,-2.76492 4.86369,-3.70457 0,0 0.28608,-2.23144 1.74497,-4.21742 0.55205,-0.82234 1.65683,-2.14622 2.89738,-1.79397 1.08379,0.36326 0.70292,3.36353 -0.73763,6.26687 -1.06587,2.13573 -2.69694,4.27168 -4.34724,5.7447 -1.45902,1.23862 -3.61779,2.73329 -5.5065,1.5803 -1.18958,-0.70438 -1.79632,-2.17816 -1.66811,-4.07864 0.56839,-5.39166 3.02273,-9.98301 6.53473,-15.21465 3.62161,-4.85804 7.61375,-9.8441 12.99185,-12.5034 1.09698,-0.55512 2.1128,-0.68324 2.99088,-0.34155 0,0 -5.04839,2.77603 -7.45499,7.91194 -0.61219,1.30281 -1.46359,3.06401 -0.60622,4.623 0.44803,0.81126 1.24357,0.87546 1.88402,0.83274 2.94979,-0.68347 4.85554,-3.43806 6.41278,-5.9576 0.90277,-1.91116 1.70518,-3.81171 1.70518,-5.92608 0,-0.25617 -0.0137,-0.59768 -0.0351,-0.8542 1.40928,-0.74708 4.29911,0.57656 4.29911,0.57656 2.25825,0.74766 7.06692,4.43145 8.68865,5.13581 0.79121,-0.91806 2.09138,-2.30595 2.82339,-3.00009 l -1.05973,-0.65138 c -1.69673,-1.0357 -3.49019,-2.01806 -5.25547,-2.9896 -4.00894,-2.18847 -7.27237,-1.41991 -8.93317,-0.82195 -0.65272,0.23475 -1.2493,0.43768 -1.2493,0.43768 -1.23247,-1.34522 -3.25383,-1.21742 -4.74319,-0.85415 -5.35619,1.53738 -10.32901,5.28485 -15.66046,11.78738 -3.91978,5.09304 -6.35149,9.49222 -7.647,13.83743 -0.99894,2.92529 -1.30251,7.22802 1.13561,9.77992 2.07294,2.16678 4.82169,1.69746 6.76291,0.91825 4.20561,-2.07137 7.98547,-6.53474 9.86921,-11.67009 0.45446,-1.52661 0.95891,-3.68334 0.17638,-5.32782 z m -46.61788,-4.95375 c -0.007,0.0214 -0.71428,1.64402 -0.71428,1.64402 -0.10229,0.0853 -0.26394,0.0428 -0.44921,0 l -0.31746,-0.0537 c -0.99684,-0.30944 -1.74881,-0.9715 -1.98062,-1.76148 -0.31978,-1.53757 0.9937,-2.74404 1.57242,-3.18158 0.55527,-0.38471 1.41853,-0.58753 1.9198,-0.19229 0.30915,0.36312 0.42629,0.83276 0.42629,1.34559 1.6e-4,0.69385 -0.21401,1.47321 -0.45692,2.19943 z m -1.51931,3.08529 c 0,0 -0.0321,0.0965 -0.048,0.12795 -0.004,0 -1.60772,2.61553 -1.60772,2.61553 -0.96783,1.29211 -2.17622,2.91546 -3.68683,3.69452 -0.44773,0.14953 -1.06664,0.24583 -1.38198,-0.14896 -0.66864,-0.80092 -0.32403,-1.91126 -0.044,-2.80809 l 0.099,-0.32038 c 0.80268,-2.17785 2.07631,-4.10011 3.31592,-5.88347 0.0155,-0.011 0.0503,-0.0212 0.0627,-0.0212 0.002,0.011 0.008,0.011 0.01,0.0322 0.77788,1.4945 2.23649,2.18824 3.32736,2.50903 0.007,0 0.0136,0.011 0.0136,0.0322 1.4e-4,0.0317 -0.0176,0.0748 -0.0602,0.17055 z m 20.06055,-1.71888 c 0.71732,-0.99274 2.80519,-3.65147 3.31417,-4.09982 1.71188,-1.50607 2.3961,-0.84335 2.45534,-0.37392 -1.59769,2.86134 -3.48328,6.13907 -5.25616,9.08608 0.004,-0.011 -0.55481,0.84336 -0.55481,0.84336 -0.78303,1.19561 -1.57143,2.22057 -2.85741,2.93591 -0.18339,0.0537 -0.48567,0.0751 -0.68687,-0.0748 -0.24217,-0.16019 -0.33772,-0.42715 -0.31045,-0.70493 0.0769,-0.91795 1.01178,-3.72547 3.89616,-7.612 z m -17.77823,-6.49154 c -2.21318,-1.45202 -6.66138,1.32398 -10.22403,6.08538 -3.25803,4.2712 -4.66487,9.23547 -3.13385,11.53119 2.27754,2.7012 6.50555,-1.2278 8.30352,-3.33084 l 0.23196,-0.24583 c 1.22268,-1.31331 2.16735,-2.8936 3.08168,-4.40988 0,0 0.84033,-1.38798 0.88047,-1.45218 0.51937,-0.0958 1.14497,-0.24524 1.8499,-0.44818 -0.01,0.0317 -2.69711,4.54829 -2.42296,6.79033 0.0853,0.68394 0.0201,3.18228 2.45944,3.94023 3.25103,0.54489 5.84728,-1.97525 8.13718,-4.21743 0,0 0.39027,-0.37333 0.61099,-0.58647 -0.0558,0.22365 -0.12862,0.522 -0.12862,0.522 -0.95178,3.30996 0.33118,4.0044 1.13376,4.26071 2.42541,0.70505 5.32297,-2.81861 5.33232,-2.81861 -0.0751,1.10993 -0.29486,2.02816 0.87521,2.7649 1.1044,0.39537 2.22209,-0.20729 3.07159,-0.7732 3.06008,-2.15675 5.52528,-5.53218 7.51628,-8.44999 h -1.27012 c -0.015,0 -3.13421,4.52086 -5.15957,5.50346 -0.002,0 -0.37173,0.18923 -0.58414,0.0395 -0.2629,-0.22438 -0.15918,-0.69064 0.002,-1.02095 0.01,-0.0216 7.82031,-13.56724 7.82031,-13.56724 h -3.68746 c 0,0 -0.40282,0.65172 -0.43564,0.69445 -0.0248,-0.0214 -0.0839,-0.13338 -0.12482,-0.18705 -2.28463,-3.16028 -7.45851,1.7008 -11.35378,7.33772 -1.49964,2.16764 -3.40889,4.60828 -5.38862,6.37018 0,0 -2.93287,2.68847 -4.18603,0.75687 -0.45808,-0.81161 -0.31717,-1.99811 -0.0588,-2.77728 1.45902,-4.15333 3.97318,-7.92246 6.8341,-10.19717 0.80766,-0.62956 1.68544,-0.81162 2.12113,-0.54462 0.41507,0.24597 0.48203,0.85404 0.21941,1.27053 -0.66631,-0.0214 -1.20008,0.1812 -1.63408,0.62966 -0.85491,0.89694 -1.15196,1.7619 -0.88012,2.57352 1.32047,1.87906 3.95392,-1.83659 3.82654,-4.10011 -0.0455,-0.81162 -0.47853,-1.58017 -1.12465,-1.95424 -0.963,-0.57627 -2.43217,-0.42702 -3.38292,0.0323 -1.27275,0.48029 -3.28749,2.15639 -4.46354,3.45924 -1.48051,1.63387 -4.01958,3.44875 -4.81371,3.24549 0.26014,-0.69431 2.40486,-5.08237 0.14867,-6.72615 z m 18.53511,23.75623 c -4.34287,-2.7976 -10.23687,-3.28848 -19.74192,-0.65136 -10.133,2.38123 -13.51181,3.90765 -17.94865,0.84336 -1.70457,-1.5053 -2.31574,-3.92901 -1.85934,-7.41999 1.05847,-5.6912 3.91873,-11.16823 8.9997,-17.2431 2.83601,-3.16029 5.46651,-5.8724 8.94017,-6.96134 2.66222,-0.68322 2.41333,1.40901 2.0912,1.7082 -0.33992,0 -0.91094,0.0537 -1.35223,0.34155 -0.35816,0.27777 -1.34132,1.17471 -1.39413,2.38121 -0.0762,1.847 1.83531,1.46253 2.65976,0.44848 0.88866,-1.14273 2.2019,-3.33116 1.16888,-5.37071 -0.433,-0.72595 -1.18112,-1.22764 -2.11004,-1.39851 -3.18071,-0.18177 -6.14318,1.33444 -8.87716,3.01073 -5.97742,4.15322 -10.76031,9.9083 -13.46628,16.20787 -1.56035,3.80085 -2.97139,9.24538 -0.85621,13.67696 1.63619,3.07477 5.03311,4.70806 9.08607,4.3665 2.84241,-0.29864 6.27913,-1.21731 8.5912,-1.772 2.31161,-0.55555 14.14439,-4.62309 18.03269,2.45624 0,0 1.29287,-2.5098 4.52389,-2.56331 2.65638,-0.24509 6.48862,0.76903 9.27923,2.81861 -0.92975,-1.39823 -3.56569,-3.45889 -5.76473,-4.87916 z"
     id="path2-3-7-4"
     inkscape:export-filename="C:\Users\suitedoalex\sites\coca-cola-logo-16.png"
     inkscape:export-xdpi="34.439999"
     inkscape:export-ydpi="34.439999" /><path
     inkscape:connector-curvature="0"
     style="fill:#ffffff;stroke-width:0.53895611"
     d="m 197.79457,224.01067 c -0.002,0 -0.33335,0.29574 -0.33335,0.29574 -0.47401,0.42377 -0.96177,0.87743 -1.55057,0.65053 -0.16264,-0.059 -0.27703,-0.27581 -0.3045,-0.44396 -0.0267,-1.21291 0.51942,-2.33681 1.04907,-3.4311 l 0.13583,-0.28619 c 1.52362,-2.54398 3.29462,-5.54155 5.89563,-7.62191 0.43829,-0.31623 0.91396,-0.58197 1.41595,-0.37472 0.11552,0.10826 0.24993,0.29575 0.24993,0.48291 0,0.0595 -0.0526,0.21707 -0.0832,0.26611 -0.7264,1.17395 -1.41825,2.40644 -2.09104,3.58955 -1.3148,2.33719 -2.67872,4.7528 -4.38387,6.8733 z m -14.09317,-5.99534 c -0.0996,0.0694 -1.85669,-0.52254 -2.19623,-2.14947 -0.28808,-1.40076 0.67649,-2.49526 1.60974,-3.04699 0.40059,-0.31569 1.00398,-0.42389 1.44657,-0.26678 0.41083,0.27649 0.52211,0.76989 0.52211,1.30158 0,0.32606 -0.0431,0.66102 -0.0815,0.96661 0,0 -0.007,0.0595 -0.009,0.0693 -0.2928,1.09419 -0.74079,2.1692 -1.29232,3.12583 z m -6.71215,6.61675 c -0.1792,-0.26623 -0.23863,-0.55738 -0.24454,-0.87213 -0.0343,-1.9335 2.04587,-5.39604 3.51425,-7.28237 h 0.004 c 0.61537,1.34737 2.0088,2.21348 2.85,2.57846 -1.04476,2.32733 -4.62791,7.31148 -6.12254,5.57604 z m 25.36004,0.34333 c -0.34776,0.23659 -0.83635,0.0548 -0.65365,-0.48749 0.45501,-1.38055 2.26406,-4.19389 2.26406,-4.19389 l 5.03868,-8.93698 h -3.45147 c -0.16397,0.26948 -0.51484,0.88831 -0.51484,0.88831 -0.15965,-0.26597 -0.63714,-0.85747 -0.83376,-0.98521 -0.84321,-0.53289 -2.08037,-0.28091 -2.9338,0.20211 -3.71061,2.16973 -6.41789,6.4567 -8.55324,9.79931 0,0 -2.24756,3.71609 -3.49524,3.99247 -0.97401,0.0791 -0.87354,-1.23313 -0.83133,-1.53883 0.37658,-2.20918 1.25117,-4.30938 2.13237,-6.21254 1.79215,-1.24241 3.83748,-2.86941 5.69624,-4.65415 4.03381,-3.85598 7.43436,-8.22448 7.93127,-9.20053 0,0 -0.538,0.10862 -1.17331,0.12815 -3.10331,4.32889 -9.45382,10.62066 -11.379,11.55681 0.85292,-2.05136 6.36349,-11.84301 11.05293,-16.52654 l 0.73796,-0.71024 c 1.14096,-1.11427 2.32333,-2.25811 3.24461,-2.4455 0.0973,-0.0102 0.22259,0 0.33078,0.22716 0.0411,0.86761 -0.28188,1.50865 -0.65241,2.23829 l -0.51928,1.06513 c 0,0 0.73558,-0.1381 1.21859,-0.29629 0.56051,-1.05463 1.18128,-2.23828 0.95244,-3.6481 -0.0765,-0.45364 -0.40476,-0.79872 -0.83387,-0.87767 -1.39885,-0.26624 -2.92341,0.76881 -4.15008,1.60728 l -0.0496,0.0293 c -6.30579,4.94035 -11.63065,12.06022 -16.28615,21.78299 -0.33741,0.25601 -1.64103,0.56201 -1.86266,0.41392 0.45975,-0.94642 1.03857,-2.21878 1.32827,-3.59927 0.0502,-0.39452 0.0967,-0.79862 0.0967,-1.19297 0,-0.84875 -0.20371,-1.64716 -0.96408,-2.19922 -0.89142,-0.44383 -1.99317,-0.23659 -2.736,0.0984 -3.32779,1.38053 -5.8148,4.79265 -7.60952,7.60251 -0.96527,1.78529 -1.92775,3.69735 -2.19419,5.88703 -0.18771,1.71548 0.19442,2.81992 1.1698,3.37235 1.00311,0.51241 2.26565,-0.0202 2.7616,-0.27635 3.37128,-1.7749 5.72695,-5.33448 7.58364,-8.58882 0.0739,-0.0102 1.08761,-0.0391 1.85445,-0.2366 0.0102,0 0.0146,0 0.0315,0.0102 -0.0439,0.14728 -0.44019,1.33097 -0.44019,1.33097 -1.17682,3.45103 -1.721,5.79809 -0.60945,7.1886 1.58841,1.96244 4.21813,-0.0687 6.35753,-2.75137 -0.45919,3.21459 1.20684,3.7177 2.47676,3.47141 1.45885,-0.39425 3.08445,-1.95264 3.83888,-2.7511 -0.24227,0.93659 -0.17638,2.61313 1.15067,2.78057 0.90966,0.16816 1.59035,-0.32659 2.37799,-0.75076 2.8253,-1.53845 6.2077,-6.66473 7.08565,-8.14684 h -1.15132 c -1.24822,1.88643 -2.83663,4.35987 -4.83471,5.53398 z m -43.52663,-19.14265 h 3.23363 l 1.82502,-2.96426 h -3.23428 z m 51.65409,-7.87469 c -2.46561,1.40048 -5.02146,2.30743 -8.11561,1.99198 -0.85747,0.96662 -1.6923,1.96245 -2.46183,2.98788 4.34247,1.10441 8.94612,-1.3509 11.51372,-3.68766 2.71606,-2.35686 4.10889,-5.32473 4.10889,-5.32473 0,0 -2.03591,2.32694 -5.04529,4.03257 z m -27.19032,-0.74916 c -0.51419,5.89673 -5.09789,9.35844 -6.23197,9.63385 -0.68727,0.13784 -1.86004,-0.16761 -0.81317,-2.6424 1.54184,-3.33333 4.17411,-6.16295 6.99835,-7.61276 0.0687,0.24658 0.067,0.40397 0.0467,0.62116 z m -8.9316,14.86011 c -0.32834,-0.70981 -1.10797,-1.16349 -1.93872,-1.1143 -2.69791,0.24671 -5.33674,2.4653 -6.72241,5.65043 -0.72705,1.63707 -1.12382,2.98785 -1.38402,5.13743 0.83887,-0.96607 2.55006,-2.55357 4.49192,-3.4214 0,0 0.26421,-2.06087 1.61159,-3.89505 0.50985,-0.75948 1.53018,-1.98216 2.67591,-1.65684 1.00094,0.3355 0.64919,3.10643 -0.68125,5.78784 -0.9844,1.97248 -2.49079,3.94516 -4.01495,5.30559 -1.34749,1.14394 -3.34125,2.52436 -5.08559,1.4595 -1.09865,-0.65053 -1.65901,-2.01166 -1.5406,-3.76687 0.52494,-4.97953 2.79168,-9.21993 6.03523,-14.05167 3.34478,-4.4867 7.03176,-9.09164 11.99877,-11.54767 1.01313,-0.51268 1.9513,-0.63101 2.76226,-0.31544 0,0 -4.6625,2.56384 -6.88514,7.30717 -0.56539,1.20322 -1.35171,2.8298 -0.55988,4.26962 0.41378,0.74925 1.14851,0.80855 1.74001,0.76909 2.72431,-0.63123 4.48439,-3.17526 5.92259,-5.50221 0.83377,-1.76508 1.57484,-3.52035 1.57484,-5.4731 0,-0.23659 -0.0127,-0.552 -0.0324,-0.78891 1.30156,-0.68997 3.9705,0.53249 3.9705,0.53249 2.08563,0.69051 6.52673,4.09272 8.0245,4.74324 0.73073,-0.84789 1.93152,-2.12969 2.60758,-2.77077 l -0.97873,-0.60159 c -1.56703,-0.95653 -3.2234,-1.8638 -4.85375,-2.76108 -3.7025,-2.02119 -6.71648,-1.31138 -8.25033,-0.75912 -0.60283,0.2168 -1.15381,0.40422 -1.15381,0.40422 -1.13826,-1.24239 -3.00511,-1.12436 -4.38063,-0.78886 -4.94677,1.41987 -9.53948,4.88089 -14.4634,10.88638 -3.62016,4.70373 -5.86599,8.76665 -7.06248,12.77972 -0.92258,2.70169 -1.20295,6.67552 1.04881,9.03236 1.91449,2.00116 4.45313,1.56771 6.24596,0.84806 3.88415,-1.91304 7.37508,-6.03524 9.11483,-10.77805 0.41972,-1.40992 0.88561,-3.40179 0.1629,-4.92057 z m -43.0545,-4.5751 c -0.006,0.0198 -0.65968,1.51836 -0.65968,1.51836 -0.0945,0.0788 -0.24376,0.0395 -0.41487,0 l -0.2932,-0.0496 c -0.92064,-0.28578 -1.61513,-0.89724 -1.82922,-1.62683 -0.29534,-1.42004 0.91774,-2.53429 1.45223,-2.93839 0.51282,-0.3553 1.3101,-0.54262 1.77305,-0.17759 0.28552,0.33536 0.3937,0.76911 0.3937,1.24274 1.5e-4,0.64081 -0.19765,1.3606 -0.42199,2.03131 z m -1.40317,2.84946 c 0,0 -0.0297,0.0891 -0.0443,0.11817 -0.004,0 -1.48483,2.4156 -1.48483,2.4156 -0.89385,1.19335 -2.00988,2.69261 -3.40502,3.41212 -0.41351,0.1381 -0.98511,0.22704 -1.27634,-0.13757 -0.61753,-0.7397 -0.29927,-1.76517 -0.0406,-2.59345 l 0.0914,-0.29589 c 0.74132,-2.01138 1.9176,-3.7867 3.06245,-5.43375 0.0143,-0.0102 0.0465,-0.0196 0.0579,-0.0196 0.002,0.0101 0.007,0.0101 0.009,0.0297 0.71842,1.38027 2.06554,2.02098 3.07303,2.31725 0.006,0 0.0126,0.0102 0.0126,0.0297 1.2e-4,0.0293 -0.0163,0.0691 -0.0556,0.15751 z m 18.52715,-1.58749 c 0.66249,-0.91686 2.59077,-3.37236 3.06084,-3.78644 1.58103,-1.39095 2.21295,-0.77888 2.26766,-0.34534 -1.47556,2.64263 -3.21702,5.66981 -4.85439,8.39156 0.004,-0.0102 -0.5124,0.7789 -0.5124,0.7789 -0.72317,1.10422 -1.45131,2.05083 -2.63899,2.71149 -0.16937,0.0496 -0.44855,0.0694 -0.63437,-0.0691 -0.22366,-0.14795 -0.3119,-0.3945 -0.28672,-0.65105 0.071,-0.84778 0.93444,-3.4407 3.59835,-7.03015 z m -16.41929,-5.99534 c -2.04401,-1.34103 -6.1522,1.22278 -9.44253,5.62023 -3.00899,3.94471 -4.30829,8.52952 -2.8943,10.64976 2.10345,2.49473 6.00828,-1.13395 7.66881,-3.07623 l 0.21423,-0.22704 c 1.12922,-1.21293 2.00169,-2.67242 2.84613,-4.0728 0,0 0.77609,-1.28189 0.81316,-1.34118 0.47968,-0.0885 1.05746,-0.22649 1.7085,-0.41392 -0.009,0.0293 -2.49095,4.20063 -2.23775,6.27129 0.0788,0.63166 0.0186,2.93903 2.27144,3.63905 3.00253,0.50324 5.40033,-1.82427 7.51519,-3.89506 0,0 0.36044,-0.3448 0.56429,-0.54164 -0.0515,0.20655 -0.11879,0.4821 -0.11879,0.4821 -0.87903,3.05695 0.30587,3.69831 1.0471,3.93503 2.24002,0.65115 4.91609,-2.60317 4.92473,-2.60317 -0.0694,1.02509 -0.27233,1.87314 0.80831,2.55356 1.01998,0.36515 2.05223,-0.19144 2.8368,-0.7141 2.82617,-1.99189 5.10294,-5.10931 6.94175,-7.80409 h -1.17303 c -0.0138,0 -2.89464,4.1753 -4.76519,5.08279 -0.002,0 -0.34331,0.17477 -0.53949,0.0365 -0.2428,-0.20723 -0.14701,-0.63785 0.002,-0.94291 0.009,-0.0199 7.22254,-12.53019 7.22254,-12.53019 h -3.40559 c 0,0 -0.37203,0.60191 -0.40234,0.64137 -0.0229,-0.0198 -0.0775,-0.12318 -0.11528,-0.17275 -2.11,-2.91871 -6.8884,1.57079 -10.48592,6.77684 -1.38501,2.00195 -3.14832,4.25603 -4.97673,5.88325 0,0 -2.70868,2.48297 -3.86605,0.69902 -0.42307,-0.74957 -0.29293,-1.84538 -0.0543,-2.56499 1.34749,-3.83586 3.66947,-7.31688 6.31171,-9.41772 0.74592,-0.58143 1.55661,-0.74958 1.959,-0.50299 0.38334,0.22717 0.44518,0.78876 0.20263,1.17342 -0.61537,-0.0198 -1.10834,0.16734 -1.50917,0.58153 -0.78956,0.82838 -1.06391,1.62722 -0.81284,2.3768 1.21953,1.73543 3.65168,-1.6962 3.53404,-3.7867 -0.042,-0.74959 -0.44195,-1.45939 -1.03868,-1.80487 -0.88939,-0.53222 -2.24626,-0.39438 -3.12434,0.0298 -1.17546,0.44358 -3.0362,1.99156 -4.12235,3.19483 -1.36735,1.50898 -3.71233,3.18513 -4.44576,2.99741 0.24025,-0.64124 2.22103,-4.69389 0.1373,-6.21202 z m 17.11832,21.94035 c -4.01091,-2.58376 -9.45438,-3.03712 -18.23288,-0.60157 -9.35846,2.19921 -12.479,3.60895 -16.57669,0.77889 -1.57428,-1.39024 -2.13873,-3.62868 -1.71722,-6.85282 0.97756,-5.25617 3.61919,-10.31455 8.31178,-15.92507 2.61923,-2.91872 5.04866,-5.42352 8.2568,-6.42923 2.45873,-0.63099 2.22886,1.30131 1.93135,1.57763 -0.31393,0 -0.84131,0.0496 -1.24886,0.31545 -0.33079,0.25653 -1.2388,1.08491 -1.28757,2.19919 -0.0704,1.70582 1.69502,1.35074 2.45645,0.4142 0.82074,-1.05538 2.03359,-3.07653 1.07954,-4.96018 -0.39991,-0.67046 -1.09084,-1.13381 -1.94876,-1.29161 -2.93758,-0.16788 -5.6736,1.23243 -8.1986,2.78059 -5.52052,3.83576 -9.93782,9.15093 -12.43695,14.96897 -1.44108,3.51032 -2.74426,8.53868 -0.79076,12.63152 1.51112,2.83974 4.64839,4.34819 8.39155,4.03273 2.62514,-0.27581 5.79916,-1.12426 7.9345,-1.63655 2.13492,-0.51308 13.06322,-4.26971 16.65431,2.26849 0,0 1.19404,-2.31795 4.17809,-2.36737 2.45333,-0.22636 5.99264,0.71024 8.56994,2.60316 -0.85868,-1.29135 -3.29313,-3.1945 -5.32408,-4.50621 z"
     id="path2-3-7-4-5"
     inkscape:export-filename="C:\Users\suitedoalex\sites\coca-cola-logo-17.png"
     inkscape:export-xdpi="38.828213"
     inkscape:export-ydpi="38.828213" /><path
     inkscape:connector-curvature="0"
     style="fill:#ffffff;stroke-width:1"
     d="m 404.68735,81.177123 c -0.003,0 -0.61851,0.54875 -0.61851,0.54875 -0.87949,0.78625 -1.7845,1.628 -2.87699,1.207 -0.30176,-0.10975 -0.51401,-0.51175 -0.56501,-0.82375 -0.0497,-2.2505 0.96376,-4.3358 1.9465,-6.3662 l 0.25201,-0.531 c 2.82699,-4.7202 6.11299,-10.282 10.93899,-14.142 0.81326,-0.58675 1.69581,-1.0798 2.6272,-0.69525 0.21425,0.20075 0.46375,0.54875 0.46375,0.896 0,0.11025 -0.0977,0.40275 -0.15425,0.49375 -1.3478,2.1782 -2.63149,4.465 -3.87979,6.6602 -2.43951,4.3365 -4.9702,8.8185 -8.134,12.753 z m -26.14901,-11.124 c -0.18475,0.12875 -3.445,-0.9695 -4.07499,-3.9882 -0.53451,-2.599 1.25519,-4.6298 2.9868,-5.6535 0.74325,-0.58575 1.8628,-0.7865 2.68399,-0.495 0.76226,0.513 0.96876,1.4285 0.96876,2.415 0,0.605 -0.0802,1.2265 -0.151,1.7935 0,0 -0.0135,0.11025 -0.0157,0.1285 -0.54326,2.0302 -1.3745,4.0248 -2.39781,5.7998 z m -12.454,12.277 c -0.3325,-0.494 -0.44275,-1.0342 -0.45375,-1.6182 -0.0638,-3.5875 3.796,-10.012 6.5205,-13.512 h 0.006 c 1.14181,2.5 3.72721,4.107 5.28801,4.7842 -1.93851,4.3182 -8.58681,13.566 -11.36001,10.346 z m 47.054,0.637 c -0.64524,0.439 -1.5518,0.1015 -1.2128,-0.9045 0.84426,-2.5615 4.20081,-7.7815 4.20081,-7.7815 l 9.349,-16.582 h -6.404 c -0.30425,0.5 -0.95526,1.6482 -0.95526,1.6482 -0.29624,-0.4935 -1.1822,-1.591 -1.547,-1.828 -1.5645,-0.98875 -3.85999,-0.52125 -5.44349,0.375 -6.88481,4.0258 -11.90801,11.98 -15.87,18.182 0,0 -4.17021,6.895 -6.4852,7.4078 -1.8072,0.1465 -1.6208,-2.288 -1.5425,-2.8552 0.69874,-4.099 2.32149,-7.9958 3.95649,-11.527 3.3252,-2.3052 7.12021,-5.324 10.56901,-8.6355 7.4845,-7.1545 13.794,-15.26 14.71599,-17.071 0,0 -0.99824,0.2015 -2.17699,0.23775 -5.75801,8.032 -17.541,19.706 -21.11301,21.443 1.5825,-3.8062 11.80701,-21.974 20.508,-30.664 l 1.3692,-1.3178 c 2.11701,-2.0675 4.31081,-4.1898 6.0202,-4.5375 0.1805,-0.0182 0.413,0 0.61375,0.4215 0.0763,1.6098 -0.523,2.7992 -1.21049,4.153 l -0.96351,1.9763 c 0,0 1.36481,-0.25625 2.26101,-0.54975 1.03999,-1.9568 2.1918,-4.153 1.7672,-6.7688 -0.14175,-0.84174 -0.75101,-1.482 -1.5472,-1.6285 -2.5955,-0.494 -5.42421,1.4265 -7.7002,2.9822 l -0.092,0.0545 c -11.70001,9.1665 -21.58001,22.377 -30.218,40.417 -0.62601,0.475 -3.0448,1.0428 -3.45601,0.768 0.85301,-1.756 1.92701,-4.1168 2.4645,-6.6782 0.093,-0.732 0.1795,-1.4818 0.1795,-2.2135 0,-1.5748 -0.37799,-3.0562 -1.7888,-4.0805 -1.65399,-0.8235 -3.69819,-0.439 -5.07649,0.18275 -6.1745,2.5615 -10.789,8.8925 -14.119,14.106 -1.791,3.3125 -3.5768,6.8602 -4.07121,10.923 -0.34825,3.183 0.36076,5.2322 2.17051,6.2572 1.8612,0.95075 4.20379,-0.0375 5.124,-0.51275 6.2552,-3.2932 10.626,-9.8978 14.071,-15.936 0.137,-0.018 2.01799,-0.0725 3.4408,-0.439 0.019,0 0.027,0 0.0585,0.0192 -0.0815,0.27325 -0.81674,2.4695 -0.81674,2.4695 -2.18351,6.4032 -3.19321,10.758 -1.1308,13.338 2.9472,3.6412 7.8265,-0.1275 11.79599,-5.105 -0.85199,5.9645 2.23921,6.898 4.5955,6.441 2.70681,-0.7315 5.72301,-3.623 7.12281,-5.1045 -0.44951,1.7378 -0.32726,4.8485 2.135,5.1592 1.68779,0.312 2.9508,-0.606 4.4122,-1.393 5.24219,-2.8545 11.51799,-12.366 13.14699,-15.116 h -2.13619 c -2.31601,3.5002 -5.26321,8.0895 -8.97051,10.268 z m -80.76099,-35.518 h 5.9998 l 3.3862,-5.5 h -6.001 z m 95.841,-14.611 c -4.5748,2.5985 -9.317,4.2813 -15.05801,3.696 -1.591,1.7935 -3.14,3.6412 -4.5678,5.5438 8.0572,2.0492 16.59901,-2.5065 21.36301,-6.8422 5.0395,-4.373 7.62379,-9.8797 7.62379,-9.8797 0,0 -3.7775,4.3175 -9.36119,7.4822 z m -50.45,-1.39 c -0.95401,10.941 -9.4588,17.364 -11.56301,17.875 -1.27519,0.25575 -3.4512,-0.311 -1.5088,-4.9028 2.8608,-6.1848 7.7448,-11.435 12.98501,-14.125 0.1275,0.4575 0.12425,0.7495 0.0867,1.1525 z m -16.57201,27.572 c -0.60924,-1.317 -2.05579,-2.1588 -3.59719,-2.0675 -5.0058,0.45775 -9.902,4.5742 -12.47301,10.484 -1.349,3.0375 -2.08519,5.5438 -2.56799,9.5322 1.55649,-1.7925 4.73149,-4.738 8.3345,-6.3482 0,0 0.49024,-3.8238 2.9902,-7.227 0.94599,-1.4092 2.83919,-3.6778 4.965,-3.0742 1.8572,0.6225 1.2045,5.7638 -1.264,10.739 -1.8265,3.6598 -4.62151,7.32 -7.44951,9.8442 -2.50019,2.1225 -6.1995,4.6838 -9.436,2.708 -2.0385,-1.207 -3.0782,-3.7325 -2.85849,-6.9892 0.97399,-9.2392 5.1798,-17.107 11.198,-26.072 6.206,-8.3248 13.047,-16.869 22.263,-21.426 1.8798,-0.95125 3.6205,-1.1708 5.1252,-0.58525 0,0 -8.65101,4.757 -12.775,13.558 -1.04901,2.2325 -2.50801,5.2505 -1.03881,7.922 0.76776,1.3902 2.13101,1.5002 3.2285,1.427 5.0548,-1.1712 8.3205,-5.8915 10.989,-10.209 1.547,-3.275 2.92201,-6.5318 2.92201,-10.155 0,-0.439 -0.0228,-1.0242 -0.06,-1.4638 2.41499,-1.2802 7.367,0.988 7.367,0.988 3.86979,1.2812 12.10999,7.5938 14.889,8.8008 1.3558,-1.5732 3.58379,-3.9515 4.83819,-5.141 l -1.81599,-1.1162 c -2.90751,-1.7748 -5.98081,-3.4582 -9.00581,-5.123 -6.86979,-3.7502 -12.462,-2.4332 -15.30799,-1.4085 -1.1185,0.40225 -2.14081,0.75 -2.14081,0.75 -2.11199,-2.3052 -5.57579,-2.0862 -8.128,-1.4637 -9.1785,2.6345 -17.69999,9.0562 -26.836,20.199 -6.71699,8.7275 -10.88399,16.266 -13.10399,23.712 -1.7118,5.0128 -2.232,12.386 1.946,16.759 3.5522,3.713 8.26249,2.9088 11.58899,1.5735 7.20681,-3.5495 13.684,-11.198 16.912,-19.998 0.77876,-2.616 1.6432,-6.3118 0.30225,-9.1298 z m -79.88499,-8.4888 c -0.012,0.0365 -1.224,2.8172 -1.224,2.8172 -0.17525,0.14625 -0.45225,0.0733 -0.76975,0 l -0.544,-0.092 c -1.7082,-0.53025 -2.9968,-1.6648 -3.394,-3.0185 -0.548,-2.6348 1.7028,-4.7022 2.6945,-5.452 0.9515,-0.65925 2.4308,-1.0068 3.2898,-0.3295 0.52975,0.62225 0.7305,1.427 0.7305,2.3058 2.5e-4,1.189 -0.36675,2.5245 -0.783,3.769 z m -2.6035,5.287 c 0,0 -0.055,0.16525 -0.0822,0.21925 -0.007,0 -2.755,4.482 -2.755,4.482 -1.6585,2.2142 -3.7292,4.996 -6.3178,6.331 -0.76725,0.25625 -1.8278,0.42125 -2.3682,-0.25525 -1.1458,-1.3725 -0.55525,-3.2752 -0.0755,-4.812 l 0.16975,-0.549 c 1.3755,-3.732 3.558,-7.026 5.6822,-10.082 0.0265,-0.018 0.086,-0.0362 0.1075,-0.0362 0.005,0.0183 0.0135,0.0183 0.0172,0.055 1.333,2.561 3.8325,3.7498 5.7018,4.2995 0.0113,0 0.0233,0.0182 0.0233,0.055 2.5e-4,0.0545 -0.0303,0.12825 -0.103,0.29225 z m 34.376,-2.9455 c 1.2292,-1.7012 4.807,-6.2572 5.6792,-7.0255 2.9335,-2.5808 4.106,-1.4452 4.2075,-0.64075 -2.7378,4.9032 -5.969,10.52 -9.007,15.57 0.006,-0.018 -0.95075,1.4452 -0.95075,1.4452 -1.3418,2.0488 -2.6928,3.8052 -4.8965,5.031 -0.31425,0.092 -0.83225,0.12875 -1.177,-0.12825 -0.415,-0.2745 -0.57875,-0.732 -0.532,-1.208 0.132,-1.573 1.7338,-6.384 6.6765,-13.044 z m -30.465,-11.124 c -3.7925,-2.4882 -11.415,2.2688 -17.52,10.428 -5.583,7.3192 -7.9938,15.826 -5.3702,19.76 3.9028,4.6288 11.148,-2.104 14.229,-5.7078 l 0.3975,-0.42125 c 2.0952,-2.2505 3.714,-4.9585 5.2808,-7.5568 0,0 1.44,-2.3785 1.5088,-2.4885 0.89,-0.164 1.962,-0.42025 3.17,-0.768 -0.0172,0.0545 -4.6218,7.794 -4.152,11.636 0.14625,1.172 0.0345,5.4532 4.2145,6.752 5.571,0.93375 10.02,-3.3848 13.944,-7.227 0,0 0.66875,-0.63975 1.047,-1.005 -0.0957,0.38325 -0.2205,0.8945 -0.2205,0.8945 -1.631,5.672 0.5675,6.862 1.9428,7.3012 4.1562,1.2082 9.1215,-4.83 9.1375,-4.83 -0.12875,1.902 -0.50525,3.4755 1.4998,4.738 1.8925,0.6775 3.8078,-0.35525 5.2635,-1.325 5.2438,-3.6958 9.4682,-9.48 12.88,-14.48 h -2.1765 c -0.0257,0 -5.3708,7.747 -8.8415,9.4308 -0.005,0 -0.637,0.32425 -1.001,0.0677 -0.4505,-0.3845 -0.27275,-1.1835 0.005,-1.7495 0.0175,-0.037 13.401,-23.249 13.401,-23.249 h -6.319 c 0,0 -0.69025,1.1168 -0.7465,1.19 -0.0425,-0.0365 -0.14375,-0.2285 -0.214,-0.3205 -3.915,-5.4155 -12.781,2.9145 -19.456,12.574 -2.5698,3.7145 -5.8415,7.8968 -9.234,10.916 0,0 -5.0258,4.607 -7.1732,1.297 -0.785,-1.3908 -0.5435,-3.424 -0.10075,-4.7592 2.5002,-7.1172 6.8085,-13.576 11.711,-17.474 1.384,-1.0788 2.8882,-1.3908 3.6348,-0.93325 0.71125,0.4215 0.826,1.4635 0.376,2.1772 -1.1418,-0.0365 -2.0565,0.3105 -2.8002,1.079 -1.465,1.537 -1.974,3.0192 -1.5082,4.41 2.2628,3.22 6.7755,-3.1472 6.5572,-7.026 -0.078,-1.3908 -0.82,-2.7078 -1.9272,-3.3488 -1.6502,-0.9875 -4.1678,-0.73175 -5.797,0.0555 -2.181,0.823 -5.6335,3.6952 -7.6488,5.9278 -2.537,2.7998 -6.888,5.9098 -8.2488,5.5615 0.44575,-1.1898 4.121,-8.7092 0.25475,-11.526 z m 31.762,40.709 c -7.442,-4.794 -17.542,-5.6352 -33.83,-1.1162 -17.364,4.0805 -23.154,6.6962 -30.757,1.4452 -2.921,-2.5795 -3.9683,-6.7328 -3.1862,-12.715 1.8138,-9.7525 6.7152,-19.138 15.422,-29.548 4.8598,-5.4155 9.3675,-10.063 15.32,-11.929 4.562,-1.1708 4.1355,2.4145 3.5835,2.9272 -0.5825,0 -1.561,0.0918 -2.3172,0.58525 -0.61375,0.476 -2.2985,2.013 -2.389,4.0805 -0.1305,3.165 3.145,2.5062 4.5578,0.7685 1.5228,-1.9582 3.7732,-5.7083 2.003,-9.2033 -0.742,-1.244 -2.024,-2.1037 -3.6158,-2.3965 -5.4505,-0.3115 -10.527,2.2867 -15.212,5.1592 -10.243,7.117 -18.439,16.979 -23.076,27.774 -2.6738,6.5132 -5.0918,15.843 -1.4672,23.437 2.8038,5.269 8.6248,8.0678 15.57,7.4825 4.8708,-0.51175 10.76,-2.086 14.722,-3.0365 3.9612,-0.952 24.238,-7.9222 30.901,4.209 0,0 2.2155,-4.3008 7.7522,-4.3925 4.552,-0.42 11.119,1.3178 15.901,4.83 -1.5932,-2.396 -6.1102,-5.9272 -9.8785,-8.361 z"
     id="path2-5" /><rect
     style="fill:#f9f9f9;fill-rule:evenodd;stroke-width:1.00000632"
     id="rect942"
     width="355.78473"
     height="219.88705"
     x="585.04889"
     y="173.41393"
     inkscape:export-filename="C:\Users\suitedoalex\sites\coca-cola-logo-4.png"
     inkscape:export-xdpi="944.39728"
     inkscape:export-ydpi="944.39728" /><path
     inkscape:connector-curvature="0"
     style="fill:#e61d2b;stroke-width:1;fill-opacity:1"
     d="m 830.04819,306.45947 c -0.003,0 -0.61851,0.54875 -0.61851,0.54875 -0.87949,0.78625 -1.7845,1.628 -2.87699,1.207 -0.30176,-0.10975 -0.51401,-0.51175 -0.56501,-0.82375 -0.0497,-2.2505 0.96376,-4.3358 1.9465,-6.3662 l 0.25201,-0.531 c 2.82699,-4.7202 6.11299,-10.282 10.93899,-14.142 0.81326,-0.58675 1.69581,-1.0798 2.6272,-0.69525 0.21425,0.20075 0.46375,0.54875 0.46375,0.896 0,0.11025 -0.0977,0.40275 -0.15425,0.49375 -1.3478,2.1782 -2.63149,4.465 -3.87979,6.6602 -2.43951,4.3365 -4.9702,8.8185 -8.134,12.753 z m -26.14901,-11.124 c -0.18475,0.12875 -3.445,-0.9695 -4.07499,-3.9882 -0.53451,-2.599 1.25519,-4.6298 2.9868,-5.6535 0.74325,-0.58575 1.8628,-0.7865 2.68399,-0.495 0.76226,0.513 0.96876,1.4285 0.96876,2.415 0,0.605 -0.0802,1.2265 -0.151,1.7935 0,0 -0.0135,0.11025 -0.0157,0.1285 -0.54326,2.0302 -1.3745,4.0248 -2.39781,5.7998 z m -12.454,12.277 c -0.3325,-0.494 -0.44275,-1.0342 -0.45375,-1.6182 -0.0638,-3.5875 3.796,-10.012 6.5205,-13.512 h 0.006 c 1.14181,2.5 3.72721,4.107 5.28801,4.7842 -1.93851,4.3182 -8.58681,13.566 -11.36001,10.346 z m 47.054,0.637 c -0.64524,0.439 -1.5518,0.1015 -1.2128,-0.9045 0.84426,-2.5615 4.20081,-7.7815 4.20081,-7.7815 l 9.349,-16.582 h -6.404 c -0.30425,0.5 -0.95526,1.6482 -0.95526,1.6482 -0.29624,-0.4935 -1.1822,-1.591 -1.547,-1.828 -1.5645,-0.98875 -3.85999,-0.52125 -5.44349,0.375 -6.88481,4.0258 -11.90801,11.98 -15.87,18.182 0,0 -4.17021,6.895 -6.4852,7.4078 -1.8072,0.1465 -1.6208,-2.288 -1.5425,-2.8552 0.69874,-4.099 2.32149,-7.9958 3.95649,-11.527 3.3252,-2.3052 7.12021,-5.324 10.56901,-8.6355 7.4845,-7.1545 13.794,-15.26 14.71599,-17.071 0,0 -0.99824,0.2015 -2.17699,0.23775 -5.75801,8.032 -17.541,19.706 -21.11301,21.443 1.5825,-3.8062 11.80701,-21.974 20.508,-30.664 l 1.3692,-1.3178 c 2.11701,-2.0675 4.31081,-4.1898 6.0202,-4.5375 0.1805,-0.0182 0.413,0 0.61375,0.4215 0.0763,1.6098 -0.523,2.7992 -1.21049,4.153 l -0.96351,1.9763 c 0,0 1.36481,-0.25625 2.26101,-0.54975 1.03999,-1.9568 2.1918,-4.153 1.7672,-6.7688 -0.14175,-0.84174 -0.75101,-1.482 -1.5472,-1.6285 -2.5955,-0.494 -5.42421,1.4265 -7.7002,2.9822 l -0.092,0.0545 c -11.70001,9.1665 -21.58001,22.377 -30.218,40.417 -0.62601,0.475 -3.0448,1.0428 -3.45601,0.768 0.85301,-1.756 1.92701,-4.1168 2.4645,-6.6782 0.093,-0.732 0.1795,-1.4818 0.1795,-2.2135 0,-1.5748 -0.37799,-3.0562 -1.7888,-4.0805 -1.65399,-0.8235 -3.69819,-0.439 -5.07649,0.18275 -6.1745,2.5615 -10.789,8.8925 -14.119,14.106 -1.791,3.3125 -3.5768,6.8602 -4.07121,10.923 -0.34825,3.183 0.36076,5.2322 2.17051,6.2572 1.8612,0.95075 4.20379,-0.0375 5.124,-0.51275 6.2552,-3.2932 10.626,-9.8978 14.071,-15.936 0.137,-0.018 2.01799,-0.0725 3.4408,-0.439 0.019,0 0.027,0 0.0585,0.0192 -0.0815,0.27325 -0.81674,2.4695 -0.81674,2.4695 -2.18351,6.4032 -3.19321,10.758 -1.1308,13.338 2.9472,3.6412 7.8265,-0.1275 11.79599,-5.105 -0.85199,5.9645 2.23921,6.898 4.5955,6.441 2.70681,-0.7315 5.72301,-3.623 7.12281,-5.1045 -0.44951,1.7378 -0.32726,4.8485 2.135,5.1592 1.68779,0.312 2.9508,-0.606 4.4122,-1.393 5.24219,-2.8545 11.51799,-12.366 13.14699,-15.116 h -2.13619 c -2.31601,3.5002 -5.26321,8.0895 -8.97051,10.268 z m -80.76099,-35.518 h 5.9998 l 3.3862,-5.5 h -6.001 z m 95.841,-14.611 c -4.5748,2.5985 -9.317,4.2813 -15.05801,3.696 -1.591,1.7935 -3.14,3.6412 -4.5678,5.5438 8.0572,2.0492 16.59901,-2.5065 21.36301,-6.8422 5.0395,-4.373 7.62379,-9.8797 7.62379,-9.8797 0,0 -3.7775,4.3175 -9.36119,7.4822 z m -50.45,-1.39 c -0.95401,10.941 -9.4588,17.364 -11.56301,17.875 -1.27519,0.25575 -3.4512,-0.311 -1.5088,-4.9028 2.8608,-6.1848 7.7448,-11.435 12.98501,-14.125 0.1275,0.4575 0.12425,0.7495 0.0867,1.1525 z m -16.57201,27.572 c -0.60924,-1.317 -2.05579,-2.1588 -3.59719,-2.0675 -5.0058,0.45775 -9.902,4.5742 -12.47301,10.484 -1.349,3.0375 -2.08519,5.5438 -2.56799,9.5322 1.55649,-1.7925 4.73149,-4.738 8.3345,-6.3482 0,0 0.49024,-3.8238 2.9902,-7.227 0.94599,-1.4092 2.83919,-3.6778 4.965,-3.0742 1.8572,0.6225 1.2045,5.7638 -1.264,10.739 -1.8265,3.6598 -4.62151,7.32 -7.44951,9.8442 -2.50019,2.1225 -6.1995,4.6838 -9.436,2.708 -2.0385,-1.207 -3.0782,-3.7325 -2.85849,-6.9892 0.97399,-9.2392 5.1798,-17.107 11.198,-26.072 6.206,-8.3248 13.047,-16.869 22.263,-21.426 1.8798,-0.95125 3.6205,-1.1708 5.1252,-0.58525 0,0 -8.65101,4.757 -12.775,13.558 -1.04901,2.2325 -2.50801,5.2505 -1.03881,7.922 0.76776,1.3902 2.13101,1.5002 3.2285,1.427 5.0548,-1.1712 8.3205,-5.8915 10.989,-10.209 1.547,-3.275 2.92201,-6.5318 2.92201,-10.155 0,-0.439 -0.0228,-1.0242 -0.06,-1.4638 2.41499,-1.2802 7.367,0.988 7.367,0.988 3.86979,1.2812 12.10999,7.5938 14.889,8.8008 1.3558,-1.5732 3.58379,-3.9515 4.83819,-5.141 l -1.81599,-1.1162 c -2.90751,-1.7748 -5.98081,-3.4582 -9.00581,-5.123 -6.86979,-3.7502 -12.462,-2.4332 -15.30799,-1.4085 -1.1185,0.40225 -2.14081,0.75 -2.14081,0.75 -2.11199,-2.3052 -5.57579,-2.0862 -8.128,-1.4637 -9.1785,2.6345 -17.69999,9.0562 -26.836,20.199 -6.71699,8.7275 -10.88399,16.266 -13.10399,23.712 -1.7118,5.0128 -2.232,12.386 1.946,16.759 3.5522,3.713 8.26249,2.9088 11.58899,1.5735 7.20681,-3.5495 13.684,-11.198 16.912,-19.998 0.77876,-2.616 1.6432,-6.3118 0.30225,-9.1298 z m -79.88499,-8.4888 c -0.012,0.0365 -1.224,2.8172 -1.224,2.8172 -0.17525,0.14625 -0.45225,0.0733 -0.76975,0 l -0.544,-0.092 c -1.7082,-0.53025 -2.9968,-1.6648 -3.394,-3.0185 -0.548,-2.6348 1.7028,-4.7022 2.6945,-5.452 0.9515,-0.65925 2.4308,-1.0068 3.2898,-0.3295 0.52975,0.62225 0.7305,1.427 0.7305,2.3058 2.5e-4,1.189 -0.36675,2.5245 -0.783,3.769 z m -2.6035,5.287 c 0,0 -0.055,0.16525 -0.0822,0.21925 -0.007,0 -2.755,4.482 -2.755,4.482 -1.6585,2.2142 -3.7292,4.996 -6.3178,6.331 -0.76725,0.25625 -1.8278,0.42125 -2.3682,-0.25525 -1.1458,-1.3725 -0.55525,-3.2752 -0.0755,-4.812 l 0.16975,-0.549 c 1.3755,-3.732 3.558,-7.026 5.6822,-10.082 0.0265,-0.018 0.086,-0.0362 0.1075,-0.0362 0.005,0.0183 0.0135,0.0183 0.0172,0.055 1.333,2.561 3.8325,3.7498 5.7018,4.2995 0.0113,0 0.0233,0.0182 0.0233,0.055 2.5e-4,0.0545 -0.0303,0.12825 -0.103,0.29225 z m 34.376,-2.9455 c 1.2292,-1.7012 4.807,-6.2572 5.6792,-7.0255 2.9335,-2.5808 4.106,-1.4452 4.2075,-0.64075 -2.7378,4.9032 -5.969,10.52 -9.007,15.57 0.006,-0.018 -0.95075,1.4452 -0.95075,1.4452 -1.3418,2.0488 -2.6928,3.8052 -4.8965,5.031 -0.31425,0.092 -0.83225,0.12875 -1.177,-0.12825 -0.415,-0.2745 -0.57875,-0.732 -0.532,-1.208 0.132,-1.573 1.7338,-6.384 6.6765,-13.044 z m -30.465,-11.124 c -3.7925,-2.4882 -11.415,2.2688 -17.52,10.428 -5.583,7.3192 -7.9938,15.826 -5.3702,19.76 3.9028,4.6288 11.148,-2.104 14.229,-5.7078 l 0.3975,-0.42125 c 2.0952,-2.2505 3.714,-4.9585 5.2808,-7.5568 0,0 1.44,-2.3785 1.5088,-2.4885 0.89,-0.164 1.962,-0.42025 3.17,-0.768 -0.0172,0.0545 -4.6218,7.794 -4.152,11.636 0.14625,1.172 0.0345,5.4532 4.2145,6.752 5.571,0.93375 10.02,-3.3848 13.944,-7.227 0,0 0.66875,-0.63975 1.047,-1.005 -0.0957,0.38325 -0.2205,0.8945 -0.2205,0.8945 -1.631,5.672 0.5675,6.862 1.9428,7.3012 4.1562,1.2082 9.1215,-4.83 9.1375,-4.83 -0.12875,1.902 -0.50525,3.4755 1.4998,4.738 1.8925,0.6775 3.8078,-0.35525 5.2635,-1.325 5.2438,-3.6958 9.4682,-9.48 12.88,-14.48 h -2.1765 c -0.0257,0 -5.3708,7.747 -8.8415,9.4308 -0.005,0 -0.637,0.32425 -1.001,0.0677 -0.4505,-0.3845 -0.27275,-1.1835 0.005,-1.7495 0.0175,-0.037 13.401,-23.249 13.401,-23.249 h -6.319 c 0,0 -0.69025,1.1168 -0.7465,1.19 -0.0425,-0.0365 -0.14375,-0.2285 -0.214,-0.3205 -3.915,-5.4155 -12.781,2.9145 -19.456,12.574 -2.5698,3.7145 -5.8415,7.8968 -9.234,10.916 0,0 -5.0258,4.607 -7.1732,1.297 -0.785,-1.3908 -0.5435,-3.424 -0.10075,-4.7592 2.5002,-7.1172 6.8085,-13.576 11.711,-17.474 1.384,-1.0788 2.8882,-1.3908 3.6348,-0.93325 0.71125,0.4215 0.826,1.4635 0.376,2.1772 -1.1418,-0.0365 -2.0565,0.3105 -2.8002,1.079 -1.465,1.537 -1.974,3.0192 -1.5082,4.41 2.2628,3.22 6.7755,-3.1472 6.5572,-7.026 -0.078,-1.3908 -0.82,-2.7078 -1.9272,-3.3488 -1.6502,-0.9875 -4.1678,-0.73175 -5.797,0.0555 -2.181,0.823 -5.6335,3.6952 -7.6488,5.9278 -2.537,2.7998 -6.888,5.9098 -8.2488,5.5615 0.44575,-1.1898 4.121,-8.7092 0.25475,-11.526 z m 31.762,40.709 c -7.442,-4.794 -17.542,-5.6352 -33.83,-1.1162 -17.364,4.0805 -23.154,6.6962 -30.757,1.4452 -2.921,-2.5795 -3.9683,-6.7328 -3.1862,-12.715 1.8138,-9.7525 6.7152,-19.138 15.422,-29.548 4.8598,-5.4155 9.3675,-10.063 15.32,-11.929 4.562,-1.1708 4.1355,2.4145 3.5835,2.9272 -0.5825,0 -1.561,0.0918 -2.3172,0.58525 -0.61375,0.476 -2.2985,2.013 -2.389,4.0805 -0.1305,3.165 3.145,2.5062 4.5578,0.7685 1.5228,-1.9582 3.7732,-5.7083 2.003,-9.2033 -0.742,-1.244 -2.024,-2.1037 -3.6158,-2.3965 -5.4505,-0.3115 -10.527,2.2867 -15.212,5.1592 -10.243,7.117 -18.439,16.979 -23.076,27.774 -2.6738,6.5132 -5.0918,15.843 -1.4672,23.437 2.8038,5.269 8.6248,8.0678 15.57,7.4825 4.8708,-0.51175 10.76,-2.086 14.722,-3.0365 3.9612,-0.952 24.238,-7.9222 30.901,4.209 0,0 2.2155,-4.3008 7.7522,-4.3925 4.552,-0.42 11.119,1.3178 15.901,4.83 -1.5932,-2.396 -6.1102,-5.9272 -9.8785,-8.361 z"
     id="path2-1"
     inkscape:export-filename="C:\Users\suitedoalex\sites\coca-cola-logo-4.png"
     inkscape:export-xdpi="944.39728"
     inkscape:export-ydpi="944.39728" /><text
     xml:space="preserve"
     style="font-style:normal;font-weight:normal;font-size:42.66693497px;line-height:1.25;font-family:sans-serif;letter-spacing:0px;word-spacing:0px;fill:#000000;fill-opacity:1;stroke:none;stroke-width:1.00000632"
     x="510.40958"
     y="542.91821"
     id="text952"><tspan
       sodipodi:role="line"
       id="tspan950"
       x="510.40958"
       y="542.91821"
       style="stroke-width:1.00000632">LOGODOWNLOAD.ORG</tspan></text>
</svg>