<?xml version="1.0" encoding="UTF-8" standalone="no"?>
<!-- Created with Inkscape (http://www.inkscape.org/) -->

<svg
   xmlns:dc="http://purl.org/dc/elements/1.1/"
   xmlns:cc="http://creativecommons.org/ns#"
   xmlns:rdf="http://www.w3.org/1999/02/22-rdf-syntax-ns#"
   xmlns:svg="http://www.w3.org/2000/svg"
   xmlns="http://www.w3.org/2000/svg"
   xmlns:sodipodi="http://sodipodi.sourceforge.net/DTD/sodipodi-0.dtd"
   xmlns:inkscape="http://www.inkscape.org/namespaces/inkscape"
   version="1.1"
   id="svg2"
   xml:space="preserve"
   width="4096"
   height="4096"
   viewBox="0 0 4096 4096.0001"
   sodipodi:docname="kia-logo.svg"
   inkscape:version="0.92.2 (5c3e80d, 2017-08-06)"><metadata
     id="metadata8"><rdf:RDF><cc:Work
         rdf:about=""><dc:format>image/svg+xml</dc:format><dc:type
           rdf:resource="http://purl.org/dc/dcmitype/StillImage" /><dc:title></dc:title></cc:Work></rdf:RDF></metadata><defs
     id="defs6"><clipPath
       clipPathUnits="userSpaceOnUse"
       id="clipPath18"><path
         d="M 48.189,0 H 623.622 V 807.874 H 48.189 Z"
         id="path16"
         inkscape:connector-curvature="0" /></clipPath><clipPath
       clipPathUnits="userSpaceOnUse"
       id="clipPath32"><path
         d="M 0,0 H 623.622 V 807.874 H 0 Z"
         id="path30"
         inkscape:connector-curvature="0" /></clipPath><clipPath
       clipPathUnits="userSpaceOnUse"
       id="clipPath40"><path
         d="M 203.836,578.881 H 476.007 V 494.192 H 203.836 Z"
         id="path38"
         inkscape:connector-curvature="0" /></clipPath><clipPath
       clipPathUnits="userSpaceOnUse"
       id="clipPath120"><path
         d="M 0,0 H 623.622 V 807.874 H 0 Z"
         id="path118"
         inkscape:connector-curvature="0" /></clipPath><clipPath
       clipPathUnits="userSpaceOnUse"
       id="clipPath140"><path
         d="M 0,0 H 623.622 V 807.874 H 0 Z"
         id="path138"
         inkscape:connector-curvature="0" /></clipPath><clipPath
       clipPathUnits="userSpaceOnUse"
       id="clipPath168"><path
         d="M 0,0 H 623.622 V 807.874 H 0 Z"
         id="path166"
         inkscape:connector-curvature="0" /></clipPath><clipPath
       clipPathUnits="userSpaceOnUse"
       id="clipPath180"><path
         d="m 261.2,720.708 h -0.071 c -0.096,0 -0.19,-10e-4 -0.285,-10e-4 v 0 c -0.564,-0.002 -1.122,-0.009 -1.672,-0.023 v 0 c -0.049,-10e-4 -0.099,-0.003 -0.148,-0.004 v 0 c -5.196,-0.135 -9.756,-0.762 -13.681,-1.881 v 0 c -4.395,-1.252 -7.994,-3.122 -10.798,-5.606 v 0 c -1.139,-1.01 -2.165,-2.152 -3.075,-3.422 v 0 c -3.603,-5.032 -5.403,-12.107 -5.403,-21.224 v 0 -70.267 c 0,-8.053 1.312,-14.488 3.932,-19.305 v 0 c 1.248,-2.292 2.791,-4.217 4.633,-5.777 v 0 c 5.708,-4.834 14.565,-7.253 26.568,-7.253 v 0 h 29.89 c 11.98,0 20.754,2.358 26.322,7.07 v 0 c 0.173,0.147 0.342,0.296 0.509,0.445 v 0 c 4.284,3.878 6.946,9.716 7.983,17.508 v 0 c 0.303,2.271 0.467,4.709 0.493,7.312 v 0 70.267 c 0,6.553 -0.93,12.037 -2.792,16.454 v 0 c -1.448,3.436 -3.46,6.225 -6.035,8.366 v 0 c -3.336,2.775 -7.618,4.763 -12.845,5.964 v 0 c -0.03,0.008 -0.062,0.015 -0.091,0.022 v 0 h -0.003 c -3.972,0.903 -8.484,1.355 -13.541,1.355 v 0 z m -5.332,-113.927 c -1.837,0.538 -3.408,1.37 -4.718,2.499 v 0 c -2.507,2.155 -3.758,5.27 -3.758,9.351 v 0 69.567 c 0,2.925 0.644,5.356 1.934,7.292 v 0 c 0.509,0.763 1.116,1.449 1.824,2.059 v 0 c 2.504,2.155 5.97,3.232 10.401,3.232 v 0 h 29.364 c 3.396,0 6.225,-0.633 8.491,-1.9 v 0 c 0.688,-0.386 1.324,-0.83 1.909,-1.332 v 0 c 2.505,-2.158 3.757,-5.273 3.757,-9.351 v 0 -69.568 c 0,-1.418 -0.15,-2.72 -0.454,-3.906 v 0 c -0.009,-0.038 -0.019,-0.076 -0.029,-0.115 v 0 c 0,-0.002 -10e-4,-0.003 -10e-4,-0.004 v 0 c -0.015,-0.052 -0.028,-0.103 -0.042,-0.154 v 0 c -10e-4,-10e-4 -10e-4,-0.003 -0.002,-0.004 v 0 c -0.014,-0.05 -0.028,-0.102 -0.043,-0.151 v 0 c -10e-4,-0.003 -0.002,-0.006 -0.003,-0.008 v 0 c -0.021,-0.072 -0.042,-0.144 -0.065,-0.215 v 0 c -0.607,-1.931 -1.647,-3.527 -3.118,-4.793 v 0 c -1.185,-1.02 -2.583,-1.799 -4.197,-2.336 v 0 c -1.801,-0.599 -3.868,-0.898 -6.203,-0.898 v 0 h -29.364 c -2.114,0 -4.008,0.244 -5.683,0.735"
         id="path178"
         inkscape:connector-curvature="0" /></clipPath><clipPath
       clipPathUnits="userSpaceOnUse"
       id="clipPath192"><path
         d="M 0,0 H 623.622 V 807.874 H 0 Z"
         id="path190"
         inkscape:connector-curvature="0" /></clipPath><clipPath
       clipPathUnits="userSpaceOnUse"
       id="clipPath204"><path
         d="m 174.069,719.485 c -4.704,0 -8.166,-0.961 -10.382,-2.879 v 0 c -0.003,-0.002 -0.004,-0.004 -0.006,-0.004 v 0 c -0.033,-0.029 -0.067,-0.059 -0.1,-0.089 v 0 c -0.029,-0.025 -0.056,-0.051 -0.083,-0.076 v 0 c -2.17,-2.001 -3.659,-5.704 -4.462,-11.111 v 0 l -7.085,-47.241 -6.023,-40.153 c -0.029,-0.334 -0.087,-0.627 -0.174,-0.881 v 0 c -0.28,-0.811 -0.863,-1.217 -1.749,-1.217 v 0 h -2.797 c -0.417,0 -0.767,0.089 -1.05,0.268 v 0 c -0.508,0.321 -0.798,0.931 -0.873,1.829 v 0 l -1.709,11.399 -11.4,75.996 c -0.818,5.477 -2.36,9.206 -4.633,11.187 v 0 c -0.615,0.537 -1.318,1 -2.109,1.393 v 0 c -2.128,1.052 -4.893,1.579 -8.29,1.579 v 0 H 91.567 c -3.264,0 -5.884,-0.35 -7.865,-1.048 v 0 c -0.426,-0.151 -0.828,-0.32 -1.211,-0.506 v 0 c -1.399,-0.689 -2.509,-1.627 -3.333,-2.815 v 0 c -0.079,-0.114 -0.155,-0.23 -0.231,-0.346 v 0 c -0.353,-0.558 -0.663,-1.159 -0.929,-1.804 v 0 c -0.426,-1.035 -0.739,-2.183 -0.938,-3.444 v 0 c -0.35,-2.216 -0.525,-4.837 -0.525,-7.866 v 0 -115.711 h 20.8 v 110.992 c 0,0.496 0.025,0.927 0.075,1.291 v 0 c 0.043,0.32 0.106,0.589 0.188,0.806 v 0 c 0.175,0.465 0.786,0.7 1.835,0.7 v 0 h 4.02 c 0.274,0 0.516,-0.025 0.724,-0.076 v 0 c 0.501,-0.121 0.813,-0.388 0.937,-0.799 v 0 c 0.037,-0.122 0.074,-0.268 0.113,-0.437 v 0 c 0.052,-0.224 0.106,-0.488 0.164,-0.794 v 0 c 0.093,-0.507 0.194,-1.127 0.301,-1.859 v 0 c 0.011,-0.076 0.023,-0.153 0.034,-0.23 v 0 l 13.808,-83.55 c 0.261,-1.655 0.585,-3.226 0.977,-4.718 v 0 c 0.132,-0.505 0.273,-1.001 0.421,-1.488 v 0 c 0.582,-1.923 1.398,-3.583 2.447,-4.982 v 0 c 0.27,-0.36 0.561,-0.699 0.869,-1.017 v 0 c 0.003,-0.003 0.008,-0.007 0.011,-0.011 v 0 c 0.006,-0.006 0.012,-0.012 0.018,-0.018 v 0 c 0.882,-0.902 1.924,-1.631 3.123,-2.187 v 0 c 0.496,-0.232 1.025,-0.427 1.587,-0.587 v 0 c 1.283,-0.366 2.733,-0.548 4.354,-0.548 v 0 h 18.529 c 4.66,0 7.953,1.485 9.876,4.456 v 0 c 1.923,2.971 3.234,6.67 3.932,11.1 v 0 l 13.809,83.55 c 0.232,1.629 0.436,2.737 0.612,3.32 v 0 c 0.175,0.582 0.726,0.875 1.66,0.875 v 0 h 4.021 0.049 c 1.018,-0.007 1.614,-0.243 1.786,-0.7 v 0 c 0.039,-0.107 0.075,-0.226 0.106,-0.359 v 0 c 0.104,-0.442 0.156,-1.021 0.156,-1.738 v 0 -110.992 h 20.8 v 115.711 0.217 c -0.008,2.796 -0.166,5.241 -0.476,7.334 v 0 c -0.016,0.106 -0.032,0.211 -0.048,0.315 v 0 c -0.198,1.256 -0.51,2.4 -0.934,3.432 v 0 c -0.267,0.649 -0.577,1.253 -0.933,1.814 v 0 c -0.075,0.117 -0.151,0.234 -0.23,0.348 v 0 c -0.924,1.331 -2.21,2.35 -3.856,3.052 v 0 c -0.223,0.095 -0.452,0.184 -0.689,0.269 v 0 c -1.983,0.698 -4.605,1.048 -7.866,1.048 v 0 z"
         id="path202"
         inkscape:connector-curvature="0" /></clipPath><clipPath
       clipPathUnits="userSpaceOnUse"
       id="clipPath216"><path
         d="M 0,0 H 623.622 V 807.874 H 0 Z"
         id="path214"
         inkscape:connector-curvature="0" /></clipPath><clipPath
       clipPathUnits="userSpaceOnUse"
       id="clipPath228"><path
         d="m 544.969,718.961 h 10e-4 z m -55.233,0 c -10.104,0 -17.96,-1.743 -23.568,-5.225 v 0 c -1.118,-0.695 -2.148,-1.458 -3.088,-2.292 v 0 c -5.653,-5.012 -8.477,-13.227 -8.477,-24.646 v 0 -68.518 c 0,-11.885 2.853,-20.247 8.565,-25.082 v 0 c 5.708,-4.834 14.565,-7.253 26.568,-7.253 v 0 h 55.933 v 20.101 H 489.91 c -4.429,0 -7.865,1.076 -10.313,3.234 v 0 c -0.74,0.652 -1.369,1.392 -1.885,2.22 v 0 c -1.19,1.909 -1.786,4.285 -1.786,7.13 v 0 10e-4 24.47 h 68.345 v 19.752 h -68.345 v 23.597 c 0,2.442 0.44,4.541 1.32,6.295 v 0 c 0.587,1.173 1.372,2.192 2.351,3.056 v 0 c 2.448,2.154 5.884,3.233 10.313,3.233 v 0 h 55.06 l -10e-4,19.927 z"
         id="path226"
         inkscape:connector-curvature="0" /></clipPath><clipPath
       clipPathUnits="userSpaceOnUse"
       id="clipPath240"><path
         d="M 0,0 H 623.622 V 807.874 H 0 Z"
         id="path238"
         inkscape:connector-curvature="0" /></clipPath><clipPath
       clipPathUnits="userSpaceOnUse"
       id="clipPath252"><path
         d="M 421.745,718.961 399.721,613.387 c -0.378,-1.886 -0.78,-3.37 -1.206,-4.45 v 0 c -0.232,-0.588 -0.471,-1.057 -0.718,-1.406 v 0 c -0.172,-0.244 -0.404,-0.458 -0.697,-0.642 v 0 c -0.267,-0.168 -0.583,-0.311 -0.95,-0.428 v 0 c -0.864,-0.278 -2.004,-0.415 -3.422,-0.415 v 0 h -6.642 c -2.331,0 -3.845,0.611 -4.544,1.836 v 0 c -0.306,0.534 -0.602,1.187 -0.884,1.957 v 0 c -0.228,0.615 -0.447,1.303 -0.659,2.067 v 0 c -0.13,0.467 -0.256,0.96 -0.379,1.481 v 0 l -11.618,55.692 -10.407,49.882 h -23.246 l 12.846,-57.42 12.847,-57.418 c 0.053,-0.232 0.109,-0.463 0.165,-0.691 v 0 c 1.415,-5.715 3.69,-10.028 6.827,-12.943 v 0 c 3.261,-3.028 8.099,-4.544 14.508,-4.544 v 0 h 15.032 c 4.049,0 7.492,0.498 10.329,1.494 v 0 c 2.062,0.725 3.804,1.712 5.227,2.963 v 0 c 0.716,0.63 1.39,1.339 2.023,2.128 v 0 c 2.351,2.935 4.125,6.973 5.318,12.117 v 0 l 25.52,114.314 z"
         id="path250"
         inkscape:connector-curvature="0" /></clipPath><clipPath
       clipPathUnits="userSpaceOnUse"
       id="clipPath264"><path
         d="M 0,0 H 623.622 V 807.874 H 0 Z"
         id="path262"
         inkscape:connector-curvature="0" /></clipPath><clipPath
       clipPathUnits="userSpaceOnUse"
       id="clipPath292"><path
         d="M 0,0 H 623.622 V 807.874 H 0 Z"
         id="path290"
         inkscape:connector-curvature="0" /></clipPath></defs><sodipodi:namedview
     pagecolor="#ffffff"
     bordercolor="#666666"
     borderopacity="1"
     objecttolerance="10"
     gridtolerance="10"
     guidetolerance="10"
     inkscape:pageopacity="0"
     inkscape:pageshadow="2"
     inkscape:window-width="1920"
     inkscape:window-height="1017"
     id="namedview4"
     showgrid="false"
     inkscape:zoom="0.054773395"
     inkscape:cx="4671.7111"
     inkscape:cy="1510.06"
     inkscape:window-x="-8"
     inkscape:window-y="-8"
     inkscape:window-maximized="1"
     inkscape:current-layer="g10" /><g
     id="g10"
     inkscape:groupmode="layer"
     inkscape:label="2019 Sustainability Magazine &amp;quot;Move&amp;quot;"
     transform="matrix(1.3333333,0,0,-1.3333333,0,4096)"><g
       id="g124"
       transform="translate(486.2123,552.9009)" /><g
       id="g126"
       transform="translate(486.2123,567.3835)" /><g
       id="g128"
       transform="translate(486.2123,574.625)" /><g
       id="g130"
       transform="translate(486.2123,581.8662)" /><g
       id="g132"
       transform="translate(486.2123,589.1077)" /><g
       id="g134"
       transform="matrix(62.587569,0,0,62.587569,-33525.656,-1772.3726)"><g
         id="g136"
         clip-path="url(#clipPath140)"><g
           id="g142"
           transform="translate(560.2026,43.8109)"><path
             d="m 0,0 c -10.037,0 -18.203,4.06 -18.203,9.05 0,4.988 8.166,9.048 18.203,9.048 10.037,0 18.203,-4.06 18.203,-9.048 C 18.203,4.06 10.037,0 0,0 m 0,19.402 c -11.387,0 -20.618,-4.635 -20.618,-10.354 0,-5.716 9.231,-10.352 20.618,-10.352 11.385,0 20.616,4.636 20.616,10.352 0,5.719 -9.231,10.354 -20.616,10.354"
             style="fill:#c10121;fill-opacity:1;fill-rule:nonzero;stroke:none"
             id="path144"
             inkscape:connector-curvature="0" /></g><g
           id="g146"
           transform="translate(558.1962,57.5029)"><path
             d="M 0,0 H 0.333 C 0.45,0 0.541,-0.092 0.541,-0.208 v -9.463 c 0,-0.125 0.098,-0.223 0.223,-0.223 h 2.475 c 0.126,0 0.223,0.098 0.223,0.223 V 0.412 c 0,0.123 -0.099,0.222 -0.223,0.222 H 0 c -0.03,0 -0.03,-0.03 -0.03,-0.055 V 0.054 C -0.03,0.031 -0.03,0 0,0"
             style="fill:#c10121;fill-opacity:1;fill-rule:nonzero;stroke:none"
             id="path148"
             inkscape:connector-curvature="0" /></g><g
           id="g150"
           transform="translate(563.7809,47.6092)"><path
             d="M 0,0 H 2.433 C 2.55,0 2.676,0.094 2.724,0.22 l 2.075,6.532 c 0,0.002 0.023,0.092 0.102,0.092 C 4.974,6.844 4.998,6.752 5,6.752 L 7.097,0.22 C 7.146,0.092 7.268,0 7.388,0 h 2.431 c 0.087,0 0.135,0.041 0.16,0.077 0.048,0.064 0.053,0.145 0.038,0.195 L 6.632,10.381 C 6.58,10.513 6.448,10.527 6.338,10.527 H 2.456 c -0.029,0 -0.054,-0.024 -0.054,-0.053 V 9.948 c 0,-0.027 0.027,-0.054 0.054,-0.054 h 0.287 c 0.124,0 0.206,-0.073 0.206,-0.182 0,-0.036 -0.007,-0.072 -0.023,-0.12 L -0.196,0.27 C -0.215,0.204 -0.2,0.132 -0.159,0.079 -0.119,0.027 -0.063,0 0,0"
             style="fill:#c10121;fill-opacity:1;fill-rule:nonzero;stroke:none"
             id="path152"
             inkscape:connector-curvature="0" /></g><g
           id="g154"
           transform="translate(547.2355,57.5029)"><path
             d="m 0,0 c 0.117,0 0.209,-0.092 0.209,-0.208 v -9.463 c 0,-0.125 0.096,-0.223 0.22,-0.223 h 2.407 c 0.123,0 0.222,0.101 0.222,0.223 v 3.979 c 0,0.087 0.039,0.137 0.11,0.137 0.083,0 0.122,-0.058 0.152,-0.101 0.002,-0.005 0.006,-0.009 0.011,-0.014 L 6.166,-9.652 C 6.258,-9.79 6.423,-9.894 6.553,-9.894 h 2.858 c 0.067,0 0.142,0.05 0.176,0.116 0.037,0.071 0.027,0.153 -0.026,0.231 -0.008,0.012 -3.585,5.072 -3.62,5.123 -0.011,0.015 -0.018,0.026 -0.022,0.037 -0.009,0.014 -0.016,0.03 -0.019,0.045 -0.002,0.011 -0.006,0.021 -0.006,0.035 0,0.042 0.02,0.085 0.043,0.132 l 0.004,0.006 3.027,4.484 c 0.038,0.061 0.038,0.144 0,0.212 C 8.929,0.594 8.865,0.634 8.793,0.634 H 6.076 C 5.949,0.634 5.782,0.531 5.689,0.393 L 3.329,-2.945 C 3.256,-3.054 3.184,-3.06 3.17,-3.06 H 3.168 c -0.066,0 -0.11,0.045 -0.11,0.11 v 3.362 c 0,0.123 -0.099,0.222 -0.222,0.222 h -3.169 c -0.028,0 -0.055,-0.025 -0.055,-0.055 V 0.054 C -0.388,0.025 -0.36,0 -0.333,0 Z"
             style="fill:#c10121;fill-opacity:1;fill-rule:nonzero;stroke:none"
             id="path156"
             inkscape:connector-curvature="0" /></g></g></g></g></svg>